<svg id="Layer_1" enable-background="new 0 0 512 512" height="512" viewBox="0 0 512 512" width="512" xmlns="http://www.w3.org/2000/svg"><g><path d="m512 342.18v125.07c0 24.68-20.07 44.75-44.75 44.75h-422.5c-24.68 0-44.75-20.07-44.75-44.75v-125.47c0-2.49 1.24-4.81 3.3-6.21 5.9-3.99 12.16-7.31 18.68-9.93l436.01-.47 30.22-.03c7.19 2.78 14.08 6.42 20.54 10.85 2.03 1.4 3.25 3.72 3.25 6.19z" fill="#9fc3d7"/><path d="m512 342.18v125.07c0 24.68-20.07 44.75-44.75 44.75h-30.3c24.68 0 44.75-20.07 44.75-44.75v-125.07c0-2.47-1.22-4.79-3.25-6.19-6.44-4.41-13.3-8.04-20.46-10.82l30.22-.03c7.19 2.78 14.08 6.42 20.54 10.85 2.03 1.4 3.25 3.72 3.25 6.19z" fill="#7ca3bf"/><path d="m488.21 325.14-5.19 5.19c-1.75 1.75-3.52 3.48-5.31 5.17-28.75 27.41-62.52 48.88-100.49 63.91-38.86 15.37-80.02 23.21-122.36 23.31-42.37-.1-83.54-7.94-122.39-23.31-40.33-15.96-75.93-39.2-105.81-69.08l-4.68-4.69c11.88-4.81 24.61-7.29 37.64-7.29h392.18c12.59 0 24.89 2.31 36.41 6.79z" fill="#e4f4ff"/><path d="m432.65 318.35c-104.8 82.1-250.62 82.12-355.34-.08h9c23.84 0 35.59-13.27 51.94-34.38l15.968-28.934c3.643-6.035 7.112-16.786 8.563-22.356 3.53-13.46 5.45-27.86 5.45-42.68h173.22c0 14.82 1.92 29.22 5.45 42.68 1.45 5.57 4.869 16.32 8.564 22.355l15.976 28.935c8.18 10.55 17.52 19.17 27.8 25.15 10.279 5.97 21.489 9.31 33.409 9.31z" fill="#ffeac5"/><path d="m346.9 232.6c-3.33 2.81-6.74 5.63-10.23 8.46-22.96 18.65-51.94 28.95-81.56 28.95h-.48c-29.68 0-58.7-10.32-81.72-29.05-3.46-2.8-6.84-5.59-10.13-8.36 3.53-13.46 5.45-27.86 5.45-42.68h173.22c0 14.82 1.92 29.22 5.45 42.68z" fill="#ffc69f"/><path d="m420.86 83.43c0 35.9-26.4 77.35-78.55 123.41 0 .01-.01.02-.02.03-6.22 5.5-12.81 11.06-19.77 16.69-19 15.45-42.94 23.95-67.41 23.95h-.48c-24.51 0-48.5-8.52-67.52-24-65.21-52.77-98.28-99.9-98.28-140.08 0-4.44.17-8.66.52-12.55.61-6.21 1.06-17.77 1.32-33.5.15-8.98.22-19.03.23-29.88 0-4.15 3.36-7.5 7.5-7.5h312.88c4.14 0 7.5 3.35 7.5 7.49.02 30.4.59 53.44 1.55 63.22.01.03.01.07.01.11.35 4.14.52 8.38.52 12.61z" fill="#ffeac5"/><g fill="#ffc69f"><path d="m420.34 70.82c.35 4.14.52 8.38.52 12.61 0 35.9-26.4 77.35-78.55 123.41 23.6-28.84 48.56-99.21 48.56-123.3 0-4.22-.17-8.46-.52-12.6 0-.04 0-.08-.01-.12-.96-9.77-1.53-32.81-1.55-63.21 0-4.14-3.36-7.5-7.5-7.5l.24-.11h29.75c4.14 0 7.5 3.35 7.5 7.49.02 30.4.59 53.44 1.55 63.22.01.03.01.07.01.11z"/><path d="m254.844 39.702c-17.708 0-32.113 14.406-32.113 32.113 0 4.142 3.358 7.5 7.5 7.5s7.5-3.358 7.5-7.5c0-9.437 7.677-17.113 17.113-17.113s17.114 7.677 17.114 17.113c0 4.142 3.358 7.5 7.5 7.5s7.5-3.358 7.5-7.5c0-17.708-14.407-32.113-32.114-32.113z"/><path d="m307.08 151.652c-9.867-16.188-23.379-38.359-52.24-38.359-28.853 0-42.366 22.17-52.232 38.359-1.573 2.581-1.443 5.854.33 8.302s4.841 3.591 7.785 2.904c28.735-6.728 59.49-6.729 88.245 0 .569.133 1.142.198 1.709.198 2.371 0 4.645-1.127 6.074-3.102 1.772-2.448 1.902-5.721.329-8.302z"/></g><g fill="#ffe527"><path d="m109.591 248.101-50.121-37.202c-3.327-2.468-8.024-1.773-10.493 1.552-2.469 3.326-1.773 8.024 1.552 10.493l50.121 37.202c1.344.997 2.911 1.478 4.464 1.478 2.293 0 4.557-1.048 6.028-3.03 2.47-3.326 1.775-8.024-1.551-10.493z"/><path d="m78.437 264.557-28.751-10.042c-3.912-1.367-8.188.697-9.554 4.607-1.366 3.911.697 8.188 4.607 9.554l28.751 10.042c.818.286 1.653.421 2.473.421 3.1 0 6-1.937 7.081-5.029 1.366-3.91-.696-8.187-4.607-9.553z"/><path d="m100.852 193.077c-2.439-3.347-7.13-4.084-10.479-1.644-3.347 2.439-4.083 7.131-1.644 10.479l17.938 24.613c1.468 2.014 3.751 3.083 6.067 3.083 1.532 0 3.078-.468 4.411-1.439 3.347-2.439 4.083-7.131 1.644-10.479z"/><path d="m460.711 212.451c-2.469-3.325-7.167-4.021-10.493-1.552l-50.121 37.202c-3.326 2.469-4.021 7.167-1.552 10.493 1.472 1.982 3.735 3.03 6.028 3.03 1.554 0 3.121-.481 4.464-1.478l50.121-37.202c3.327-2.469 4.022-7.167 1.553-10.493z"/><path d="m469.557 259.122c-1.366-3.911-5.641-5.972-9.554-4.607l-28.751 10.042c-3.911 1.366-5.973 5.643-4.607 9.554 1.08 3.092 3.98 5.029 7.081 5.029.82 0 1.655-.136 2.473-.421l28.751-10.042c3.91-1.367 5.973-5.644 4.607-9.555z"/><path d="m403.021 226.524 17.938-24.613c2.44-3.348 1.704-8.039-1.644-10.479-3.348-2.439-8.039-1.704-10.479 1.644l-17.938 24.613c-2.44 3.348-1.704 8.039 1.644 10.479 1.333.972 2.879 1.439 4.411 1.439 2.317 0 4.601-1.068 6.068-3.083z"/></g><path d="m396.63 289.7c-.21 1.98-1.2 3.79-2.75 5.04-39.22 31.57-88.6 48.97-139.04 48.97s-99.81-17.39-139.03-48.97c-1.55-1.25-2.54-3.06-2.75-5.04s.37-3.96 1.61-5.51l25.09-31.15c2.6-3.23 7.32-3.74 10.55-1.14 29.9 24.08 66.05 36.81 104.53 36.81 38.49 0 74.64-12.73 104.54-36.81 1.55-1.25 3.53-1.83 5.51-1.62 1.98.22 3.79 1.21 5.04 2.76l25.08 31.15c1.25 1.55 1.83 3.53 1.62 5.51z" fill="#7ca3bf"/><path d="m282.34 316.21-27.5 27.5c-50.44 0-99.81-17.39-139.03-48.97-1.55-1.25-2.54-3.06-2.75-5.04s.37-3.96 1.61-5.51l25.09-31.15c2.6-3.23 7.32-3.74 10.55-1.14 29.9 24.08 66.05 36.81 104.53 36.81z" fill="#9fc3d7"/><path d="m488.21 325.14-5.19 5.19c-1.75 1.75-3.52 3.48-5.31 5.17-6.24-4.21-12.88-7.69-19.8-10.36-9.87-3.84-19.41-6.79-25.26-6.79h19.15c12.59 0 24.89 2.31 36.41 6.79z" fill="#c0eaf7"/></g></svg>