<svg id="Layer_1" enable-background="new 0 0 512 512" height="512" viewBox="0 0 512 512" width="512" xmlns="http://www.w3.org/2000/svg"><g><g><g><path d="m512 342.18v125.07c0 24.68-20.07 44.75-44.75 44.75h-422.5c-24.68 0-44.75-20.07-44.75-44.75v-125.47c0-2.49 1.24-4.81 3.3-6.21 5.9-3.99 12.16-7.31 18.68-9.93l436.01-.47 30.22-.03c7.19 2.78 14.08 6.42 20.54 10.85 2.03 1.4 3.25 3.72 3.25 6.19z" fill="#9fc3d7"/><path d="m512 342.18v125.07c0 24.68-20.07 44.75-44.75 44.75h-30.3c24.68 0 44.75-20.07 44.75-44.75v-125.07c0-2.47-1.22-4.79-3.25-6.19-6.44-4.41-13.3-8.04-20.46-10.82l30.22-.03c7.19 2.78 14.08 6.42 20.54 10.85 2.03 1.4 3.25 3.72 3.25 6.19z" fill="#7ca3bf"/><path d="m488.21 325.14-5.19 5.19c-1.75 1.75-3.52 3.48-5.31 5.17-28.75 27.41-62.52 48.88-100.49 63.91-38.86 15.37-80.02 23.21-122.36 23.31-42.37-.1-83.54-7.94-122.39-23.31-40.33-15.96-75.93-39.2-105.81-69.08l-4.68-4.69c11.88-4.81 24.61-7.29 37.64-7.29h392.18c12.59 0 24.89 2.31 36.41 6.79z" fill="#e4f4ff"/><path d="m432.65 318.35c-104.8 82.1-251.4 82.2-356.12 0 23.84 0 45.37-13.26 61.72-34.38 10.89-15.27 18.28-32.9 22.98-49.41 5.01-17.52 7-33.77 7-44.56h173.22c0 10.79 2 27.04 7 44.57 4.71 16.51 12.1 34.13 22.99 49.4 16.35 21.12 37.37 34.38 61.21 34.38z" fill="#ffeac5"/><path d="m348.45 234.57c-3.32 2.8-6.73 5.61-10.21 8.43-23.38 19.01-52.93 29.51-83.13 29.51h-.48c-30.26 0-59.84-10.52-83.3-29.61-3.45-2.79-6.82-5.57-10.1-8.34 5.01-17.52 7-33.77 7-44.56h173.22c0 10.79 2 27.04 7 44.57z" fill="#ffc69f"/><path d="m420.86 83.43c0 35.9-26.4 77.35-78.55 123.41 0 .01-.01.02-.02.03-6.22 5.5-12.81 11.06-19.77 16.69-19 15.45-42.94 23.95-67.41 23.95h-.48c-24.51 0-48.5-8.52-67.52-24-65.21-52.77-98.28-99.9-98.28-140.08 0-4.44.17-8.66.52-12.55.61-6.21 1.06-17.77 1.32-33.5.15-8.98.22-19.03.23-29.88 0-4.15 3.36-7.5 7.5-7.5h312.88c4.14 0 7.5 3.35 7.5 7.49.02 30.4.59 53.44 1.55 63.22.01.03.01.07.01.11.35 4.14.52 8.38.52 12.61z" fill="#ffeac5"/><g fill="#ffc69f"><path d="m420.34 70.82c.35 4.14.52 8.38.52 12.61 0 35.9-26.4 77.35-78.55 123.41 23.6-28.84 48.56-99.21 48.56-123.3 0-4.22-.17-8.46-.52-12.6 0-.04 0-.08-.01-.12-.96-9.77-1.53-32.81-1.55-63.21 0-4.14-3.36-7.5-7.5-7.5l.24-.11h29.75c4.14 0 7.5 3.35 7.5 7.49.02 30.4.59 53.44 1.55 63.22.01.03.01.07.01.11z"/><path d="m254.844 39.702c-17.708 0-32.113 14.406-32.113 32.113 0 4.142 3.358 7.5 7.5 7.5s7.5-3.358 7.5-7.5c0-9.437 7.677-17.113 17.113-17.113s17.114 7.677 17.114 17.113c0 4.142 3.358 7.5 7.5 7.5s7.5-3.358 7.5-7.5c0-17.708-14.407-32.113-32.114-32.113z"/><path d="m307.08 151.652c-9.867-16.188-23.379-38.359-52.24-38.359-28.853 0-42.366 22.17-52.232 38.359-1.573 2.581-1.443 5.854.33 8.302s4.841 3.591 7.785 2.904c28.735-6.728 59.49-6.729 88.245 0 .569.133 1.142.198 1.709.198 2.371 0 4.645-1.127 6.074-3.102 1.772-2.448 1.902-5.721.329-8.302z"/></g><path d="m488.21 325.14-5.19 5.19c-1.75 1.75-3.52 3.48-5.31 5.17-6.24-4.21-12.88-7.69-19.8-10.36-9.87-3.84-19.41-6.79-25.26-6.79h19.15c12.59 0 24.89 2.31 36.41 6.79z" fill="#c0eaf7"/></g></g><g><path d="m314.449 157.78c0 19.3-15.7 34.99-34.99 34.99-3.47 0-6.83-.51-10-1.46-14.44-4.3-25-17.7-25-33.53 0-17.66 27.77-56.95 30.93-61.38.63-.88 1.51-1.52 2.52-1.83.49-.17 1.01-.26 1.55-.26 1.61 0 3.12.78 4.06 2.09 3.17 4.43 30.93 43.72 30.93 61.38z" fill="#99f5d2"/><path d="m314.449 157.78c0 19.3-15.7 34.99-34.99 34.99-3.47 0-6.83-.51-10-1.46 14.44-4.31 24.99-17.71 24.99-33.53 0-12.43-9.7-44.03-16.54-63.21.49-.17 1.01-.26 1.55-.26 1.61 0 3.12.78 4.06 2.09 3.17 4.43 30.93 43.72 30.93 61.38z" fill="#69d8e4"/><path d="m251.68 252.57c0 19.3-15.7 34.99-34.99 34.99-3.47 0-6.83-.51-10-1.46-14.44-4.3-25-17.7-25-33.53 0-17.66 27.77-56.95 30.93-61.38.63-.88 1.51-1.52 2.52-1.83.49-.17 1.01-.26 1.55-.26 1.61 0 3.12.78 4.06 2.09 3.17 4.43 30.93 43.72 30.93 61.38z" fill="#99f5d2"/><path d="m251.68 252.57c0 19.3-15.7 34.99-34.99 34.99-3.47 0-6.83-.51-10-1.46 14.44-4.31 24.99-17.71 24.99-33.53 0-12.43-9.7-44.03-16.54-63.21.49-.17 1.01-.26 1.55-.26 1.61 0 3.12.78 4.06 2.09 3.17 4.43 30.93 43.72 30.93 61.38z" fill="#69d8e4"/></g></g></svg>