<svg id="Layer_1" enable-background="new 0 0 512 512" height="512" viewBox="0 0 512 512" width="512" xmlns="http://www.w3.org/2000/svg"><g><g><path d="m419.743 108.894c0 35.9-26.4 77.35-78.55 123.41 0 .01-.01.02-.02.03-6.22 5.5-12.81 11.06-19.77 16.69-19 15.45-42.94 23.95-67.41 23.95h-.48c-24.51 0-48.5-8.52-67.52-24-65.21-52.77-98.28-99.9-98.28-140.08 0-4.44.17-8.66.52-12.55.61-6.21 1.06-17.77 1.32-33.5.15-8.98.22-19.03.23-29.88 0-4.15 3.36-7.5 7.5-7.5h312.88c4.14 0 7.5 3.35 7.5 7.49.02 30.4.59 53.44 1.55 63.22.01.03.01.07.01.11.35 4.14.52 8.38.52 12.61z" fill="#ffeac5"/><g fill="#ffc69f"><path d="m419.223 96.284c.35 4.14.52 8.38.52 12.61 0 35.9-26.4 77.35-78.55 123.41 23.6-28.84 48.56-99.21 48.56-123.3 0-4.22-.17-8.46-.52-12.6 0-.04 0-.08-.01-.12-.96-9.77-1.53-32.81-1.55-63.21 0-4.14-3.36-7.5-7.5-7.5l.24-.11h29.75c4.14 0 7.5 3.35 7.5 7.49.02 30.4.59 53.44 1.55 63.22.01.03.01.07.01.11z"/><path d="m253.727 65.166c-17.708 0-32.113 14.406-32.113 32.113 0 4.142 3.358 7.5 7.5 7.5s7.5-3.358 7.5-7.5c0-9.437 7.677-17.113 17.113-17.113s17.114 7.677 17.114 17.113c0 4.142 3.358 7.5 7.5 7.5s7.5-3.358 7.5-7.5c0-17.708-14.407-32.113-32.114-32.113z"/><path d="m300.576 164.571c-9.796-15.484-22.98-31.313-46.495-31.313-23.506 0-36.69 15.829-46.488 31.313-2.84 4.489-4.341 9.705-4.341 15.082 0 15.642 12.726 28.367 28.367 28.367h44.931c15.642 0 28.366-12.726 28.366-28.367.001-5.379-1.5-10.595-4.34-15.082z"/></g></g><g><path d="m118.386 304.396 9.752-13.636c2.409-3.368 1.634-8.054-1.731-10.465-3.366-2.41-8.045-1.636-10.453 1.732l-9.752 13.636c-2.409 3.368-1.634 8.054 1.731 10.465 1.321.946 2.845 1.402 4.355 1.402 2.335.001 4.636-1.089 6.098-3.134z" fill="#c0eaf7"/><path d="m96.904 321.55c-3.365-2.41-8.045-1.636-10.454 1.733l-30.21 42.244c-2.408 3.367-1.634 8.053 1.731 10.464 1.321.946 2.845 1.402 4.355 1.402 2.335 0 4.636-1.09 6.099-3.136l30.21-42.244c2.409-3.367 1.634-8.052-1.731-10.463z" fill="#c0eaf7"/><path d="m43.56 312.053c1.595 0 3.203-.508 4.565-1.557l77.158-59.458c3.279-2.527 3.891-7.236 1.367-10.519-2.523-3.282-7.228-3.894-10.507-1.368l-77.158 59.458c-3.279 2.527-3.891 7.236-1.367 10.519 1.475 1.919 3.696 2.925 5.942 2.925z" fill="#c0eaf7"/><path d="m161.796 276.604c-3.859-1.492-8.198.433-9.687 4.297l-32.559 84.461c-1.49 3.864.432 8.206 4.292 9.697.887.343 1.799.505 2.696.505 3.007 0 5.844-1.825 6.991-4.802l32.559-84.461c1.49-3.864-.431-8.206-4.292-9.697z" fill="#c0eaf7"/><path d="m401.874 294.991-9.752-13.636c-2.41-3.368-7.089-4.142-10.454-1.732-3.364 2.411-4.139 7.097-1.731 10.465l9.752 13.636c1.463 2.045 3.764 3.135 6.098 3.135 1.51 0 3.034-.456 4.356-1.402 3.364-2.412 4.139-7.098 1.731-10.466z" fill="#c0eaf7"/><path d="m445.749 376.721c1.51 0 3.034-.456 4.356-1.402 3.364-2.411 4.139-7.097 1.731-10.465l-30.211-42.244c-2.41-3.368-7.088-4.142-10.454-1.732-3.364 2.411-4.139 7.097-1.731 10.465l30.211 42.244c1.463 2.044 3.764 3.134 6.098 3.134z" fill="#c0eaf7"/><path d="m381.425 239.847c-2.524 3.282-1.912 7.991 1.367 10.519l77.158 59.458c1.362 1.049 2.97 1.557 4.565 1.557 2.246 0 4.467-1.006 5.943-2.925 2.524-3.282 1.912-7.991-1.367-10.519l-77.158-59.458c-3.28-2.526-7.984-1.915-10.508 1.368z" fill="#c0eaf7"/><path d="m381.536 374.891c.897 0 1.809-.162 2.695-.505 3.86-1.491 5.782-5.833 4.292-9.697l-32.558-84.461c-1.49-3.864-5.826-5.789-9.687-4.297-3.86 1.491-5.782 5.833-4.292 9.697l32.558 84.461c1.148 2.976 3.985 4.802 6.992 4.802z" fill="#c0eaf7"/><g fill="#99f5d2"><path d="m134.3 442.895c-3.443-2.296-8.095-1.363-10.389 2.084-11.065 16.63-29.569 26.558-49.5 26.558-32.768 0-59.427-26.687-59.427-59.489 0-4.143-3.354-7.5-7.492-7.5s-7.492 3.356-7.492 7.499c0 41.073 33.381 74.489 74.412 74.489 24.954 0 48.121-12.427 61.971-33.241 2.293-3.448 1.361-8.104-2.083-10.4z"/><path d="m504.508 404.547c-4.138 0-7.492 3.357-7.492 7.5 0 32.803-26.659 59.489-59.427 59.489-19.93 0-38.434-9.928-49.5-26.558-2.294-3.447-6.945-4.379-10.39-2.084-3.444 2.297-4.375 6.953-2.082 10.4 13.851 20.814 37.017 33.241 61.971 33.241 41.031 0 74.411-33.416 74.411-74.489.001-4.142-3.353-7.499-7.491-7.499z"/><path d="m303.794 403.029c-3.753-1.742-8.208-.111-9.95 3.646-7.189 15.51-22.865 25.531-39.938 25.531-17.391 0-33.187-10.285-40.242-26.202-1.678-3.786-6.105-5.492-9.887-3.813-3.782 1.68-5.488 6.111-3.81 9.897 9.457 21.333 30.628 35.118 53.939 35.118 22.883 0 43.895-13.431 53.53-34.217 1.742-3.757.111-8.216-3.642-9.96z"/><ellipse cx="53.928" cy="227.53" rx="7.488" ry="7.498"/><ellipse cx="23.959" cy="347.39" rx="7.488" ry="7.498"/><ellipse cx="102.877" cy="417.39" rx="7.488" ry="7.498"/><ellipse cx="183.794" cy="377.39" rx="7.488" ry="7.498"/><ellipse cx="173.804" cy="327.39" rx="7.488" ry="7.498"/><ellipse cx="454.148" cy="226.711" rx="7.488" ry="7.498"/><ellipse cx="484.117" cy="346.572" rx="7.488" ry="7.498"/><ellipse cx="405.198" cy="416.572" rx="7.488" ry="7.498"/><ellipse cx="324.282" cy="376.571" rx="7.488" ry="7.498"/><ellipse cx="334.272" cy="326.572" rx="7.488" ry="7.498"/></g></g></g></svg>