<svg id="Layer_1" enable-background="new 0 0 512 512" height="512" viewBox="0 0 512 512" width="512" xmlns="http://www.w3.org/2000/svg"><g><path d="m248.486 21.996c-135.311 0-245.002 109.691-245.002 245.002 0 119.504 85.566 219.006 198.77 240.627h92.463c113.204-21.621 198.771-121.123 198.771-240.627 0-135.311-109.691-245.002-245.002-245.002z" fill="#7255ce"/><path d="m277.656 475.439c-20.404 0-37.935 0-58.339 0-5.47 0-10.897-.618-16.202-1.77-.385 12.083-1.347 23.265-2.734 33.597 15.556 3.097 31.639 4.734 48.105 4.734s32.549-1.637 48.105-4.734c-1.387-10.333-2.349-21.514-2.734-33.597-5.304 1.152-10.731 1.77-16.201 1.77z" fill="#d3dcfb"/><path d="m262.922 492.834h32.079c-.538-6.124-.931-12.503-1.143-19.166-5.305 1.152-10.732 1.77-16.202 1.77-20.404 0-37.935 0-58.339 0-5.47 0-10.897-.618-16.202-1.77-.385 12.083-1.347 23.265-2.734 33.597 13.583 2.704 27.567 4.294 41.857 4.654.867-10.64 9.829-19.085 20.684-19.085z" fill="#bec8f7"/><g><path d="m283.606 29.4c-2.995-16.655-17.636-29.4-35.12-29.4s-32.126 12.745-35.12 29.4z" fill="#73c3f9"/></g><path d="m262.303 3.454c.46-.019.923-.027 1.388-.028-4.618-2.195-9.774-3.426-15.205-3.426-17.484 0-32.126 12.745-35.12 29.4h40.085c-8.72-7.614-6.052-25.343 8.852-25.946z" fill="#1e9ef4"/><path d="m303.934 75.453c5.571-18.471 16.166-34.781 30.192-47.339h-215.057c-20.067 0-36.485 16.418-36.485 36.485v10.854h113.697c17.05-11.443 35.34-17.783 52.207-17.783 16.858 0 35.147 6.34 52.201 17.783z" fill="#9bd8f9"/><path d="m82.584 64.599v10.854h113.697c17.05-11.443 35.339-17.783 52.206-17.783v-1.93c-15.613-15.613 3.685-27.626 3.685-27.626h-133.103c-20.067 0-36.485 16.418-36.485 36.485z" fill="#73c3f9"/><path d="m200.258 72.881h-117.674v276.44c0 18.536 14.013 33.948 31.967 36.193-2.859-9.14-4.837-19.084-5.588-29.925-.46-6.66 6.172-8.017 6.345-8.142v-7.721c0-10.978 8.931-19.909 19.909-19.909h37.062l-2.678-3.173c-18.077-21.425-39.625-58.302-39.625-112.318-.001-60.157 32.674-108.206 70.282-131.445z" fill="#d3dcfb"/><g><path d="m403.184 208.979c-12.735 0-24.938-2.314-36.218-6.535.007.629.032 1.251.032 1.882 0 72.091-38.147 109.454-42.302 115.492h37.06c10.977 0 19.909 8.931 19.909 19.909v7.721c.143.103 6.804 1.509 6.345 8.142-.751 10.841-2.729 20.785-5.588 29.925 17.954-2.245 31.967-17.656 31.967-36.193v-140.95c-3.682.396-7.419.607-11.205.607z" fill="#e9efff"/></g><path d="m299.538 105.331c0-10.399 1.546-20.442 4.409-29.92-18.116-12.673-37.693-19.671-55.46-19.671-52.352 0-120.441 60.7-120.441 148.585 0 58.377 25.3 96.865 42.292 116.135h156.298c16.992-19.27 42.291-57.757 42.291-116.135 0-.395-.012-.784-.014-1.178-40.36-14.181-69.375-52.67-69.375-97.816z" fill="#d3dcfb"/><path d="m248.487 55.74c-52.352 0-120.441 60.7-120.441 148.585 0 58.377 25.3 96.865 42.292 116.135h78.149v-229.994c-17.792-17.792 0-34.726 0-34.726z" fill="#bec8f7"/><path d="m331.999 180.595c-17.111-16.192-28.719-38.137-31.699-62.707-16.394-17.396-35.912-27.422-51.814-27.422-34.181 0-85.714 46.609-85.714 113.86 0 32.842 9.899 57.754 20.169 74.76 2.493 4.129 6.959 6.65 11.782 6.65h107.527c4.823 0 9.289-2.521 11.782-6.65 10.27-17.006 20.169-41.918 20.169-74.76 0-8.231-.779-16.157-2.202-23.731z" fill="#bec8f7"/><path d="m162.772 204.326c0 32.842 9.899 57.754 20.169 74.76 2.493 4.129 6.959 6.65 11.782 6.65h74.02v-3.858c-70.959-70.959-20.257-191.411-20.257-191.411-34.181-.001-85.714 46.608-85.714 113.859z" fill="#a8b7ef"/><path d="m284.177 320.461v-23.15c0-8.489-6.945-15.434-15.434-15.434h-40.513c-8.489 0-15.434 6.945-15.434 15.434v23.15z" fill="#e9efff"/><g><path d="m116.517 346.826h263.939c1.103 0 2.157.195 3.138.539v-7.639c0-12.011-9.827-21.838-21.838-21.838h-226.54c-12.011 0-21.838 9.827-21.838 21.838v7.639c.982-.344 2.035-.539 3.139-.539z" fill="#9bd8f9"/></g><path d="m248.487 317.888h-113.27c-12.011 0-21.838 9.827-21.838 21.838v7.639c.982-.344 2.035-.539 3.138-.539h131.533c.273-.832.438-1.286.438-1.286-15.589-15.588-.001-27.652-.001-27.652z" fill="#73c3f9"/><path d="m380.456 345.54c-14.645 0-249.294 0-263.939 0-5.513 0-9.859 4.682-9.478 10.182 4.388 63.383 49.226 97.153 76.082 111.827 11.095 6.063 23.553 9.176 36.196 9.176h58.339c12.643 0 25.102-3.114 36.196-9.176 26.856-14.674 71.694-48.444 76.082-111.827.381-5.5-3.966-10.182-9.478-10.182z" fill="#e9efff"/><path d="m116.517 345.54c-5.513 0-9.859 4.682-9.478 10.182 4.388 63.383 49.226 97.153 76.082 111.827 11.095 6.063 23.553 9.176 36.196 9.176h58.339c6.072 0 12.1-.726 17.956-2.144-80.426-38.008-47.125-129.041-47.125-129.041-62.324 0-124.648 0-131.97 0z" fill="#d3dcfb"/><circle cx="403.184" cy="105.331" fill="#3c58a0" r="105.331"/><path d="m464.848 166.996-19.595-19.596c-34.302 0-27.583-30.234-27.583-30.234l-14.485-11.835v-83.335-3.872c-10.816-8.954 0-18.125 0-18.125-58.173 0-105.331 47.158-105.331 105.331s47.158 105.331 105.331 105.331c29.442 0 56.058-12.085 75.171-31.558-12.896.485-13.508-12.107-13.508-12.107z" fill="#1c2e7a"/><circle cx="403.184" cy="105.331" fill="#e9efff" r="78.783"/><path d="m445.253 147.4c-34.302 0-27.583-30.234-27.583-30.234l-14.485-11.835v-78.782c-43.51 0-78.783 35.272-78.783 78.783s35.272 78.783 78.783 78.783c21.755 0 41.451-8.818 55.708-23.075z" fill="#d3dcfb"/><g><path d="m403.184 192.538c-48.086 0-87.207-39.121-87.207-87.207s39.121-87.207 87.207-87.207 87.207 39.121 87.207 87.207-39.121 87.207-87.207 87.207zm0-157.565c-38.796 0-70.359 31.562-70.359 70.358s31.563 70.359 70.359 70.359 70.358-31.563 70.358-70.359-31.562-70.358-70.358-70.358z" fill="#6289cc"/></g><path d="m452.912 155.059c-12.74 12.74-30.329 20.631-49.727 20.631-38.796 0-70.359-31.563-70.359-70.359s31.563-70.358 70.358-70.358v-12.977-3.872c-48.086 0-87.207 39.121-87.207 87.206 0 48.086 39.121 87.207 87.207 87.207 24.043 0 45.845-9.78 61.635-25.571z" fill="#4b6bb2"/><g><path d="m403.184 45.837c-4.652 0-8.424-3.772-8.424-8.424v-10.864c0-4.653 3.772-8.424 8.424-8.424 4.653 0 8.424 3.772 8.424 8.424v10.864c0 4.653-3.771 8.424-8.424 8.424z" fill="#3c58a0"/></g><g><path d="m403.184 192.538c-4.652 0-8.424-3.772-8.424-8.424v-10.864c0-4.652 3.772-8.424 8.424-8.424 4.653 0 8.424 3.772 8.424 8.424v10.864c0 4.653-3.771 8.424-8.424 8.424z" fill="#3c58a0"/></g><g><path d="m349.202 63.263-7.682-7.682c-3.29-3.29-3.29-8.624 0-11.914s8.624-3.29 11.913 0l7.682 7.682c3.29 3.29 3.29 8.624 0 11.913-3.29 3.291-8.623 3.29-11.913.001z" fill="#3c58a0"/></g><g><path d="m452.935 166.996-7.682-7.682c-3.29-3.29-3.29-8.624 0-11.913 3.29-3.29 8.624-3.29 11.913 0l7.682 7.682c3.29 3.29 3.29 8.624 0 11.913-3.29 3.29-8.623 3.29-11.913 0z" fill="#3c58a0"/></g><g><path d="m335.266 113.755h-10.864c-4.652 0-8.424-3.772-8.424-8.424s3.772-8.424 8.424-8.424h10.864c4.652 0 8.424 3.772 8.424 8.424 0 4.653-3.772 8.424-8.424 8.424z" fill="#3c58a0"/></g><g><path d="m481.967 113.755h-10.864c-4.653 0-8.424-3.772-8.424-8.424s3.772-8.424 8.424-8.424h10.864c4.653 0 8.424 3.772 8.424 8.424 0 4.653-3.772 8.424-8.424 8.424z" fill="#4b6bb2"/></g><g><path d="m341.52 166.996c-3.29-3.29-3.29-8.624 0-11.913l7.682-7.682c3.29-3.29 8.624-3.29 11.914 0s3.29 8.624 0 11.913l-7.682 7.682c-3.291 3.29-8.625 3.29-11.914 0z" fill="#3c58a0"/></g><g><path d="m445.253 63.263c-3.29-3.29-3.29-8.624 0-11.913l7.682-7.682c3.29-3.29 8.624-3.29 11.913 0 3.29 3.29 3.29 8.624 0 11.914l-7.682 7.682c-3.29 3.289-8.624 3.288-11.913-.001z" fill="#4b6bb2"/></g><g><path d="m403.184 95.049c-4.652 0-8.424-3.772-8.424-8.424v-29.319c0-4.653 3.772-8.424 8.424-8.424 4.653 0 8.424 3.772 8.424 8.424v29.319c0 4.652-3.771 8.424-8.424 8.424z" fill="#4b6bb2"/></g><g><path d="m384.478 113.755h-18.815c-4.652 0-8.424-3.772-8.424-8.424s3.772-8.424 8.424-8.424h18.815c4.652 0 8.424 3.772 8.424 8.424 0 4.653-3.772 8.424-8.424 8.424z" fill="#ff7186"/></g><circle cx="403.184" cy="105.331" fill="#ff4155" r="18.707"/><path d="m415.563 101.004c0 4.351-3.528 7.879-7.879 7.879s-7.879-3.528-7.879-7.879c0-4.352 3.527-7.879 7.879-7.879s7.879 3.527 7.879 7.879z" fill="#ff7186"/></g></svg>