<svg id="Capa_1" enable-background="new 0 0 512 512" height="512" viewBox="0 0 512 512" width="512" xmlns="http://www.w3.org/2000/svg"><g><path d="m301 113.5v-98.5c0-8.291-6.709-15-15-15h-30-30c-8.291 0-15 6.709-15 15v98.5l-25.093 18.823 19.087 98.174 51.006-38.247 51.006 38.247 19.087-98.174z" fill="#fc445f"/><path d="m326.093 132.323-25.093-18.823v-98.5c0-8.291-6.709-15-15-15h-30v192.25l51.006 38.247z" fill="#e1105a"/><path d="m508.067 426.768-207.067-169.768v120c0 74.399 61.601 135 136 135h30c26.181 0 45-21.645 45-45z" fill="#e1105a"/><path d="m3.933 426.768 207.067-169.768v120c0 74.399-61.601 135-136 135h-30c-26.181 0-45-21.645-45-45z" fill="#fc445f"/><path d="m512 467v-177.301c0-81.299-46.3-155.499-118.9-192.1-9-4.2-18.6-6.599-28.5-6.599-35.1 0-63.6 28.5-63.6 63.6v102.4c0 62.999 55.8 114.3 110.7 132.599 15.046 5.757 44.242 8.256 74.329 39.641 18.214 19.001 25.971 37.76 25.971 37.76z" fill="#fc445f"/><path d="m0 467v-177.301c0-81.299 45.3-155.499 117.9-192.1 9-4.2 19.6-6.599 29.5-6.599 35.099 0 63.6 28.5 63.6 63.6v102.4c0 62.999-56.8 114.3-111.7 132.599-15.046 5.757-43.242 8.256-73.329 39.641-18.214 19.001-25.971 37.76-25.971 37.76z" fill="#fd697f"/></g></svg>