<svg height="511pt" viewBox="-15 0 511 511.99983" width="511pt" xmlns="http://www.w3.org/2000/svg"><path d="m98.023438 229.230469c0 22.980469-18.628907 41.613281-41.613282 41.613281-22.980468 0-41.609375-18.632812-41.609375-41.613281s18.628907-41.613281 41.609375-41.613281c22.984375 0 41.613282 18.632812 41.613282 41.613281zm0 0" fill="#ffb39d"/><path d="m380.246094 229.230469c0 22.980469-18.632813 41.613281-41.613282 41.613281-22.980468 0-41.613281-18.632812-41.613281-41.613281s18.632813-41.613281 41.613281-41.613281c22.980469 0 41.613282 18.632812 41.613282 41.613281zm0 0" fill="#ffcbbe"/><path d="m310.59375 464.238281h-226.144531c-26.359375 0-47.730469-21.371093-47.730469-47.730469v-27.183593c0-42.222657 34.230469-76.453125 76.453125-76.453125h168.703125c42.222656 0 76.449219 34.230468 76.449219 76.453125v27.183593c0 26.359376-21.371094 47.730469-47.730469 47.730469zm0 0" fill="#00ce8e"/><path d="m270.753906 309.351562c0 40.441407-32.789062 73.230469-73.230468 73.230469-40.445313 0-73.234376-32.789062-73.234376-73.230469 0-40.445312 32.789063-73.234374 73.234376-73.234374 40.441406 0 73.230468 32.789062 73.230468 73.234374zm0 0" fill="#b0f0ef"/><path d="m226.042969 351.28125h-57.042969c-60.132812 0-108.882812-48.75-108.882812-108.886719v-80.628906c0-75.882813 61.519531-137.402344 137.40625-137.402344 75.886718 0 137.402343 61.519531 137.402343 137.402344v80.628906c0 60.136719-48.75 108.886719-108.882812 108.886719zm0 0" fill="#ffddcf"/><path d="m124.371094 178.609375c-10.699219-90.976563 76.570312-139.398437 101.550781-151.308594-9.164063-1.925781-18.667969-2.9375-28.398437-2.9375-75.886719 0-137.40625 61.519531-137.40625 137.402344v80.628906c0 57.476563 44.546874 104.550781 100.988281 108.601563-46.652344-25.761719-26.703125-87.089844-36.734375-172.386719zm0 0" fill="#ffcbbe"/><path d="m357.75 512h-320.457031c-20.320313 0-36.792969-16.472656-36.792969-36.792969v-36.863281c0-20.320312 16.472656-36.796875 36.792969-36.796875h320.457031c20.320312 0 36.792969 16.476563 36.792969 36.796875v36.863281c0 20.320313-16.472657 36.792969-36.792969 36.792969zm0 0" fill="#5ad6ff"/><path d="m111.125 475.207031v-36.863281c0-20.320312 16.472656-36.796875 36.792969-36.796875h-110.625c-20.320313 0-36.792969 16.472656-36.792969 36.796875v36.863281c0 20.320313 16.472656 36.792969 36.792969 36.792969h110.625c-20.320313 0-36.792969-16.472656-36.792969-36.792969zm0 0" fill="#00c5fd"/><path d="m213.011719 261.722656c0-10.894531-6.933594-19.730468-15.488281-19.730468-8.554688 0-15.488282 8.835937-15.488282 19.730468 0 10.898438 6.933594 19.734375 15.488282 19.734375 8.554687 0 15.488281-8.835937 15.488281-19.734375zm0 0" fill="#454545"/><path d="m208.648438 127.710938s14.671874 70.855468 135.464843 88.84375c15.382813 2.289062 28.605469-11.097657 25.832031-26.402344-2.152343-11.863282-3.695312-27.21875-3.117187-45.984375 1.582031-51.320313-52.316406-117.386719-125.335937-107.824219zm0 0" fill="#dd6642"/><path d="m301.40625 45.878906c-17.5625-8.414062-37.863281-12.421875-59.910156-9.535156l-32.847656 91.367188s8.230468 39.730468 63.078124 67.242187c46.382813-56.207031 38.519532-117.484375 29.679688-149.074219zm0 0" fill="#b24e2f"/><path d="m263.441406 99.960938c-31.578125 53.773437-94.273437 119.257812-211.898437 117.140624-14.730469-.265624-25.746094-13.730468-23.019531-28.207031 2.742187-14.578125 5.226562-36.902343 5.835937-70.78125 1.507813-83.6875 86.976563-135.652343 189.472656-112.652343 41.734375 9.363281 61.269531 57.617187 39.609375 94.5zm0 0" fill="#e7896e"/><path d="m311.261719 209.34375c3.023437-17.441406-4.972657-34.894531-20.136719-44.027344-18.515625-11.144531-49.449219-24.003906-93.601562-24.003906-44.570313 0-75.671876 13.105469-94.125 24.320312-14.660157 8.914063-22.527344 25.910157-19.761719 42.839844 3.175781 19.460938 13.496093 42.257813 44.433593 42.257813 28.105469 0 45.773438-14.433594 56.253907-28.265625 6.667969-8.796875 19.730469-8.796875 26.398437 0 10.476563 13.832031 28.148438 28.265625 56.253906 28.265625 30.472657 0 40.945313-22.125 44.285157-41.386719zm0 0" fill="#60daa8"/><path d="m445.105469 165.851562h-41.824219c-3.125 0-5.941406-1.882812-7.136719-4.769531-1.195312-2.886719-.535156-6.210937 1.671875-8.421875l28.636719-28.632812h-20.109375c-4.269531 0-7.726562-3.457032-7.726562-7.726563 0-4.265625 3.457031-7.726562 7.726562-7.726562h38.761719c3.125 0 5.941406 1.882812 7.136719 4.769531 1.199218 2.890625.535156 6.210938-1.671876 8.421875l-28.632812 28.632813h23.167969c4.269531 0 7.726562 3.457031 7.726562 7.726562 0 4.265625-3.457031 7.726562-7.726562 7.726562zm0 0" fill="#76e7e7"/><path d="m473.742188 71.628906h-41.820313c-3.125 0-5.945313-1.882812-7.140625-4.769531-1.195312-2.890625-.535156-6.210937 1.675781-8.421875l28.632813-28.632812h-20.109375c-4.269531 0-7.726563-3.457032-7.726563-7.726563 0-4.265625 3.457032-7.726563 7.726563-7.726563h38.761719c3.125 0 5.945312 1.882813 7.140624 4.769532 1.195313 2.886718.535157 6.210937-1.675781 8.421875l-28.632812 28.632812h23.167969c4.269531 0 7.726562 3.457031 7.726562 7.726563 0 4.265625-3.457031 7.726562-7.726562 7.726562zm0 0" fill="#76e7e7"/><path d="m357.75 401.550781h-320.457031c-20.320313 0-36.792969 16.472657-36.792969 36.792969v18.429688h394.042969v-18.429688c0-20.320312-16.472657-36.792969-36.792969-36.792969zm0 0" fill="#a4e7ff"/><path d="m147.917969 401.550781h-110.625c-20.320313 0-36.792969 16.472657-36.792969 36.792969v18.429688h110.625v-18.429688c0-20.320312 16.472656-36.792969 36.792969-36.792969zm0 0" fill="#5ad6ff"/><path d="m140.230469 149.398438c-15.445313 4.660156-27.691407 10.679687-36.832031 16.234374-14.660157 8.910157-22.527344 25.90625-19.761719 42.839844 3.175781 19.457032 13.496093 42.257813 44.429687 42.257813-13.609375-43.1875 12.15625-101.3125 12.164063-101.332031zm0 0" fill="#00ce8e"/></svg>