<svg id="Capa_1" enable-background="new 0 0 512 512" height="512" viewBox="0 0 512 512" width="512" xmlns="http://www.w3.org/2000/svg"><g><path d="m39.291 419.418c-7.412-3.706-10.415-12.715-6.709-20.127l30-60c2.153-4.307 6.255-7.324 11.016-8.101 4.863-.791 9.609.791 13.008 4.204l15.278 15.278 20.698-41.382c3.706-7.397 12.744-10.4 20.127-6.709 7.412 3.706 10.415 12.715 6.709 20.127l-30 60c-2.153 4.307-6.255 7.324-11.016 8.101-4.79.835-9.609-.776-13.008-4.204l-15.278-15.278-20.698 41.382c-3.691 7.361-12.647 10.423-20.127 6.709z" fill="#fed843"/><path d="m452.582 412.709-20.698-41.382-15.278 15.278c-3.398 3.413-8.232 4.98-13.008 4.204-4.761-.776-8.862-3.794-11.016-8.101l-30-60c-3.706-7.412-.703-16.421 6.709-20.127 7.412-3.691 16.421-.688 20.127 6.709l20.698 41.382 15.278-15.278c3.398-3.428 8.115-5.054 13.008-4.204 4.761.776 8.862 3.794 11.016 8.101l30 60c3.706 7.412.703 16.421-6.709 20.127-7.487 3.718-16.439.646-20.127-6.709z" fill="#fabe2c"/><path d="m485.823 161.005c-1.025-1.143-105.721-115.005-229.823-115.005s-228.798 113.862-229.838 115.02l-10.715 26.966c31.853 31.32 126.797 113.014 240.553 113.014s208.697-81.694 240.551-113.015z" fill="#f3fbff"/><path d="m485.823 161.005c-1.025-1.143-105.721-115.005-229.823-115.005v255c113.756 0 208.697-81.694 240.551-113.015z" fill="#e0f4fe"/><circle cx="256" cy="136" fill="#fd697f" r="105"/><path d="m361 136c0-57.891-47.109-105-105-105v210c57.891 0 105-47.109 105-105z" fill="#fc445f"/><circle cx="256" cy="136" fill="#704c55" r="45"/><path d="m301 136c0-24.814-20.186-45-45-45v90c24.814 0 45-20.186 45-45z" fill="#5a344b"/><path d="m508.177 155.995c-4.571-5.098-114.496-124.995-252.177-124.995s-247.606 119.897-252.177 124.995c-5.098 5.698-5.098 14.312 0 20.01.795.886 4.924 5.394 11.624 11.981l10.715-11.966c1.04-1.158 105.736-115.02 229.838-115.02s228.798 113.862 229.823 115.005l10.728 11.981c6.7-6.588 10.831-11.094 11.625-11.981 5.098-5.698 5.098-14.312.001-20.01z" fill="#704c55"/><path d="m485.823 176.005 10.728 11.981c6.7-6.588 10.831-11.094 11.625-11.981 5.098-5.698 5.098-14.312 0-20.01-4.57-5.098-114.495-124.995-252.176-124.995v30c124.102 0 228.798 113.862 229.823 115.005z" fill="#5a344b"/><path d="m293.881 378.241c-4.424-2.754-9.961-2.988-14.59-.659l-8.291 4.146v-35.728c0-8.291-6.709-15-15-15s-15 6.709-15 15v60c0 5.2 2.695 10.02 7.119 12.759 2.404 1.49 5.127 2.078 7.881 2.073 2.28-.004 4.585-.364 6.709-1.414l8.291-4.146v50.728c0 8.291 6.709 15 15 15s15-6.709 15-15v-75c0-5.2-2.695-10.02-7.119-12.759z" fill="#fed843"/><path d="m271 415.272v50.728c0 8.291 6.709 15 15 15s15-6.709 15-15v-75c0-5.2-2.695-10.02-7.119-12.759-4.424-2.754-9.961-2.988-14.59-.659l-8.291 4.146v-35.728c0-8.291-6.709-15-15-15v89.832c2.28-.004 4.585-.364 6.709-1.414z" fill="#fabe2c"/></g></svg>