<svg id="Capa_1" enable-background="new 0 0 510 510" height="512" viewBox="0 0 510 510" width="512" xmlns="http://www.w3.org/2000/svg" xmlns:xlink="http://www.w3.org/1999/xlink"><linearGradient id="lg1"><stop offset="0" stop-color="#8a7889"/><stop offset="1" stop-color="#6e566e"/></linearGradient><linearGradient id="SVGID_1_" gradientUnits="userSpaceOnUse" x1="132.559" x2="240.559" xlink:href="#lg1" y1="69.269" y2="261.269"/><linearGradient id="SVGID_2_" gradientUnits="userSpaceOnUse" x1="255" x2="255" y1="432.803" y2="512.706"><stop offset="0" stop-color="#9ae1d3"/><stop offset="1" stop-color="#80d1c1"/></linearGradient><linearGradient id="SVGID_3_" gradientUnits="userSpaceOnUse" x1="358.259" x2="264.259" y1="533.909" y2="353.909"><stop offset="0" stop-color="#0b799d" stop-opacity="0"/><stop offset=".1739" stop-color="#117d9e" stop-opacity=".174"/><stop offset=".414" stop-color="#2389a0" stop-opacity=".414"/><stop offset=".6928" stop-color="#409ca3" stop-opacity=".693"/><stop offset=".9986" stop-color="#69b7a8" stop-opacity=".999"/><stop offset="1" stop-color="#69b7a8"/></linearGradient><linearGradient id="lg2"><stop offset="0" stop-color="#fce9cb"/><stop offset="1" stop-color="#ffbd95"/></linearGradient><linearGradient id="SVGID_4_" gradientUnits="userSpaceOnUse" x1="115.631" x2="115.631" xlink:href="#lg2" y1="150.667" y2="279.292"/><linearGradient id="SVGID_5_" gradientUnits="userSpaceOnUse" x1="394.369" x2="394.369" xlink:href="#lg2" y1="150.667" y2="279.292"/><linearGradient id="SVGID_6_" gradientUnits="userSpaceOnUse" x1="186.343" x2="309.565" xlink:href="#lg2" y1="134.548" y2="329.154"/><linearGradient id="SVGID_7_" gradientUnits="userSpaceOnUse" x1="255" x2="255" y1="253" y2="44.99"><stop offset="0" stop-color="#f9dbb7" stop-opacity="0"/><stop offset=".0209" stop-color="#f7d2b0" stop-opacity=".021"/><stop offset=".1667" stop-color="#ea9b82" stop-opacity=".167"/><stop offset=".3134" stop-color="#df6c5a" stop-opacity=".313"/><stop offset=".4582" stop-color="#d5453a" stop-opacity=".458"/><stop offset=".6006" stop-color="#ce2720" stop-opacity=".601"/><stop offset=".7399" stop-color="#c9110e" stop-opacity=".74"/><stop offset=".8747" stop-color="#c60404" stop-opacity=".875"/><stop offset="1" stop-color="#c50000"/></linearGradient><linearGradient id="SVGID_8_" gradientUnits="userSpaceOnUse" x1="182.287" x2="290.287" xlink:href="#lg1" y1="41.297" y2="233.297"/><linearGradient id="SVGID_9_" gradientUnits="userSpaceOnUse" x1="397.666" x2="333.666" y1="128.544" y2="165.211"><stop offset="0" stop-color="#6e566e" stop-opacity="0"/><stop offset=".2944" stop-color="#674d66" stop-opacity=".294"/><stop offset="1" stop-color="#593b56"/></linearGradient><linearGradient id="SVGID_10_" gradientUnits="userSpaceOnUse" x1="255" x2="255" y1="237.063" y2="418.51"><stop offset="0" stop-color="#faa68e" stop-opacity="0"/><stop offset="1" stop-color="#c9766e"/></linearGradient><linearGradient id="SVGID_11_" gradientUnits="userSpaceOnUse" x1="264.062" x2="249.562" y1="398.038" y2="338.538"><stop offset="0" stop-color="#ff637b"/><stop offset="1" stop-color="#e63950"/></linearGradient><linearGradient id="SVGID_12_" gradientUnits="userSpaceOnUse" x1="255" x2="255" y1="368.667" y2="394.333"><stop offset="0" stop-color="#ff9690"/><stop offset="1" stop-color="#f9545b"/></linearGradient><linearGradient id="SVGID_13_" gradientTransform="matrix(.375 -.927 .927 .375 981.982 890.792)" gradientUnits="userSpaceOnUse" x1="308.701" x2="297.228" xlink:href="#lg1" y1="-988.046" y2="-967.225"/><linearGradient id="SVGID_14_" gradientTransform="matrix(-.375 -.927 -.927 .375 1514.906 890.792)" gradientUnits="userSpaceOnUse" x1="1053.429" x2="1041.956" xlink:href="#lg1" y1="853.992" y2="874.812"/><linearGradient id="SVGID_15_" gradientUnits="userSpaceOnUse" x1="255" x2="255" y1="363" y2="417"><stop offset="0" stop-color="#fff" stop-opacity="0"/><stop offset="1" stop-color="#fff"/></linearGradient><linearGradient id="lg3"><stop offset="0" stop-color="#f8f6fb"/><stop offset="1" stop-color="#ffdecf"/></linearGradient><linearGradient id="SVGID_16_" gradientUnits="userSpaceOnUse" x1="172.834" x2="214.621" xlink:href="#lg3" y1="444.63" y2="486.417"/><linearGradient id="lg4"><stop offset="0" stop-color="#faa68e" stop-opacity="0"/><stop offset="1" stop-color="#faa68e"/></linearGradient><linearGradient id="SVGID_17_" gradientUnits="userSpaceOnUse" x1="200.804" x2="254.59" xlink:href="#lg4" y1="455.902" y2="425.833"/><linearGradient id="SVGID_18_" gradientUnits="userSpaceOnUse" x1="308.074" x2="357.663" xlink:href="#lg3" y1="435.445" y2="485.034"/><linearGradient id="SVGID_19_" gradientUnits="userSpaceOnUse" x1="341.267" x2="405.096" xlink:href="#lg4" y1="448.822" y2="413.138"/><linearGradient id="SVGID_20_" gradientUnits="userSpaceOnUse" x1="215.645" x2="254.925" xlink:href="#lg3" y1="460.233" y2="499.514"/><linearGradient id="SVGID_21_" gradientUnits="userSpaceOnUse" x1="241.937" x2="292.498" xlink:href="#lg4" y1="470.83" y2="442.563"/><linearGradient id="SVGID_22_" gradientUnits="userSpaceOnUse" x1="259.586" x2="287.494" xlink:href="#lg3" y1="436.388" y2="464.297"/><linearGradient id="SVGID_23_" gradientUnits="userSpaceOnUse" x1="278.266" x2="314.189" xlink:href="#lg4" y1="443.917" y2="423.834"/><linearGradient id="SVGID_24_" gradientUnits="userSpaceOnUse" x1="284.28" x2="319.311" xlink:href="#lg3" y1="468.717" y2="503.747"/><linearGradient id="SVGID_25_" gradientUnits="userSpaceOnUse" x1="307.728" x2="352.818" xlink:href="#lg4" y1="478.167" y2="452.959"/><linearGradient id="SVGID_26_" gradientUnits="userSpaceOnUse" x1="221.861" x2="239.625" xlink:href="#lg3" y1="417.771" y2="435.535"/><linearGradient id="SVGID_27_" gradientUnits="userSpaceOnUse" x1="233.751" x2="256.617" xlink:href="#lg4" y1="422.563" y2="409.78"/><linearGradient id="SVGID_28_" gradientUnits="userSpaceOnUse" x1="261.724" x2="261.724" xlink:href="#lg3" y1="391.197" y2="403.725"/><linearGradient id="SVGID_29_" gradientUnits="userSpaceOnUse" x1="190.083" x2="190.083" xlink:href="#lg3" y1="356.538" y2="369.066"/><linearGradient id="SVGID_30_" gradientUnits="userSpaceOnUse" x1="215.291" x2="215.291" xlink:href="#lg3" y1="371.521" y2="379.021"/><linearGradient id="SVGID_31_" gradientUnits="userSpaceOnUse" x1="176.822" x2="176.822" xlink:href="#lg3" y1="381.889" y2="389.389"/><linearGradient id="SVGID_32_" gradientUnits="userSpaceOnUse" x1="315.351" x2="315.351" xlink:href="#lg3" y1="383.264" y2="390.764"/><linearGradient id="SVGID_33_" gradientUnits="userSpaceOnUse" x1="280.546" x2="280.546" xlink:href="#lg3" y1="368.771" y2="376.271"/><linearGradient id="SVGID_34_" gradientUnits="userSpaceOnUse" x1="249.791" x2="249.791" xlink:href="#lg3" y1="353.261" y2="360.761"/><linearGradient id="SVGID_35_" gradientUnits="userSpaceOnUse" x1="232.196" x2="232.196" xlink:href="#lg3" y1="387.4" y2="392.937"/><linearGradient id="SVGID_36_" gradientUnits="userSpaceOnUse" x1="335.022" x2="335.022" xlink:href="#lg3" y1="370.271" y2="375.807"/><linearGradient id="SVGID_37_" gradientUnits="userSpaceOnUse" x1="289.196" x2="289.196" xlink:href="#lg3" y1="387.4" y2="392.937"/><g><g><path d="m90.934 468.62h328.132c13.539-98.333 18.525-197.312 14.96-296.121-3.475-96.29-82.673-172.499-179.026-172.499-96.353 0-175.551 76.209-179.026 172.499-3.566 98.808 1.421 197.788 14.96 296.121z" fill="url(#SVGID_1_)"/><path d="m486.754 463.53c12.805 14.415 3.674 37.25-15.537 38.897-55.03 4.716-127.891 7.573-207.827 7.573-88.483 0-168.293-3.502-224.84-9.136-18.978-1.891-28.082-24.562-15.317-38.732.096-.107.192-.213.288-.32 56.824-63.133 139.197-102.821 230.831-102.821 90.65 0 172.172 38.793 228.952 100.717 1.16 1.265 2.31 2.538 3.45 3.822z" fill="url(#SVGID_2_)"/><path d="m486.75 463.53c-1.14-1.28-2.29-2.56-3.45-3.82-56.78-61.93-138.3-100.72-228.95-100.72-37.91 0-74.23 6.8-107.82 19.24l49.639 49.635c-11.911 3.506-31.652 15.047-31.652 53.05l28.321 28.321c22.666.499 46.28.764 70.553.764 4.993 0 9.947-.015 14.882-.037l.007.007c74.08-.33 141.35-3.12 192.94-7.54 19.21-1.65 28.34-24.48 15.53-38.9z" fill="url(#SVGID_3_)"/><g><path d="m115.631 280.922c-16.863 0-30.534-13.67-30.534-30.534v-18.158c0-16.863 13.67-30.534 30.534-30.534 16.863 0 30.534 13.67 30.534 30.534v18.159c0 16.863-13.671 30.533-30.534 30.533z" fill="url(#SVGID_4_)"/><path d="m394.369 280.922c-16.863 0-30.534-13.67-30.534-30.534v-18.158c0-16.863 13.67-30.534 30.534-30.534 16.863 0 30.534 13.67 30.534 30.534v18.159c-.001 16.863-13.671 30.533-30.534 30.533z" fill="url(#SVGID_5_)"/></g><path d="m255 428.583c76.292 0 139.053-60.317 141.809-136.559 1.182-32.689 1.182-65.401 0-98.089-2.757-76.242-65.517-136.56-141.809-136.56-76.291 0-139.052 60.317-141.808 136.559-1.182 32.689-1.182 65.401 0 98.089 2.756 76.242 65.516 136.56 141.808 136.56z" fill="url(#SVGID_6_)"/><path d="m255 57.376c-76.291 0-139.052 60.317-141.808 136.559-.422 11.686-.687 53.575-.808 65.265h285.232c-.12-11.69-.385-53.579-.808-65.265-2.756-76.242-65.516-136.559-141.808-136.559z" fill="url(#SVGID_7_)"/><path d="m432.831 201.696c-.179-9.311-.428-18.621-.76-27.929-3.407-95.456-81.554-171.181-177.071-171.181-95.249 0-173.605 75.306-177.046 170.492-.297 8.202-.517 25.41-.694 33.614l168.502-23.144c41.598-5.713 79.221-27.718 104.594-61.173l17.926 57.755c3.296 10.62 12.085 18.622 22.967 20.91 2.074.436 4.188.656 6.308.656z" fill="url(#SVGID_8_)"/><path d="m374.156 48.714c-2.931 37.404-23.801 73.661-23.801 73.661l17.926 57.755c3.296 10.62 12.085 18.622 22.967 20.91 2.074.436 4.188.656 6.308.656h35.274c-.179-9.311-.428-18.621-.76-27.929-1.771-49.652-23.772-93.958-57.914-125.053z" fill="url(#SVGID_9_)"/><path d="m263.749 315.333h-17.499c-14.023 0-24.949-10.339-23.449-22.19l9.149-72.289h46.098l9.149 72.289c1.501 11.851-9.424 22.19-23.448 22.19z" fill="url(#SVGID_10_)"/><g><path d="m299.928 354.114c-.189-4.666-2.949-8.395-7.326-9.576-24.52-6.616-50.686-6.616-75.205 0-4.377 1.181-7.136 4.909-7.326 9.576-.733 18.046 3.576 32.858 11.55 44.999 1.617 2.461 4.597 4.276 7.874 4.825 17.134 2.871 33.874 2.871 51.008 0 3.277-.549 6.258-2.364 7.874-4.825 7.976-12.141 12.284-26.953 11.551-44.999z" fill="url(#SVGID_11_)"/><path d="m286.527 384.866c1.742 2.67.5 6.901-2.114 7.206-7.486.874-17.398 1.403-28.273 1.403-12.037 0-22.894-.649-30.587-1.692-2.582-.35-3.82-4.55-2.084-7.175.013-.02.026-.039.039-.059 7.73-11.695 18.936-19.047 31.402-19.047 12.332 0 23.422 7.186 31.146 18.658.16.232.316.468.471.706z" fill="url(#SVGID_12_)"/></g><g><path d="m214.878 235.104c-.008.02-.016.039-.024.059-4.314 10.45-15.931 23.103-46.769 24.033-4.691.142-8.609-3.547-8.75-8.238-.14-4.692 3.547-8.609 8.238-8.75 12.004-.362 27.225-3.004 31.571-13.531 1.791-4.339 6.76-6.403 11.098-4.612 4.318 1.782 6.384 6.715 4.636 11.039z" fill="url(#SVGID_13_)"/><path d="m295.122 235.104c.008.02.016.039.024.059 4.314 10.45 15.931 23.103 46.769 24.033 4.691.142 8.609-3.547 8.75-8.238.14-4.692-3.547-8.609-8.238-8.75-12.004-.362-27.225-3.004-31.571-13.531-1.791-4.339-6.76-6.403-11.098-4.612-4.319 1.782-6.384 6.715-4.636 11.039z" fill="url(#SVGID_14_)"/></g></g><path d="m324 455h-138l23.367-69.005c6.578-19.426 24.806-32.497 45.315-32.497h.637c20.509 0 38.737 13.072 45.315 32.497z" fill="url(#SVGID_15_)"/><g><circle cx="184.905" cy="456.701" fill="url(#SVGID_16_)" r="32.264"/><path d="m199.338 427.84c2.176 4.343 3.403 9.244 3.403 14.432 0 17.819-14.445 32.264-32.264 32.264-5.188 0-10.09-1.227-14.432-3.403 5.297 10.572 16.231 17.831 28.861 17.831 17.819 0 32.264-14.445 32.264-32.264-.001-12.629-7.26-23.562-17.832-28.86z" fill="url(#SVGID_17_)"/></g><g><circle cx="322.4" cy="449.77" fill="url(#SVGID_18_)" r="38.288"/><path d="m339.527 415.521c2.582 5.154 4.038 10.97 4.038 17.127 0 21.146-17.142 38.288-38.288 38.288-6.157 0-11.973-1.456-17.127-4.038 6.286 12.546 19.261 21.161 34.25 21.161 21.146 0 38.288-17.142 38.288-38.288 0-14.989-8.614-27.964-21.161-34.25z" fill="url(#SVGID_19_)"/></g><g><circle cx="226.992" cy="471.581" fill="url(#SVGID_20_)" r="30.329"/><path d="m240.559 444.45c2.046 4.082 3.199 8.69 3.199 13.567 0 16.75-13.579 30.329-30.329 30.329-4.877 0-9.484-1.153-13.567-3.199 4.98 9.938 15.257 16.762 27.13 16.762 16.75 0 30.329-13.579 30.329-30.329 0-11.872-6.823-22.15-16.762-27.13z" fill="url(#SVGID_21_)"/></g><g><circle cx="267.648" cy="444.45" fill="url(#SVGID_22_)" r="21.548"/><path d="m277.287 425.175c1.453 2.9 2.272 6.174 2.272 9.639 0 11.901-9.647 21.548-21.548 21.548-3.465 0-6.738-.819-9.639-2.273 3.538 7.061 10.84 11.909 19.275 11.909 11.901 0 21.548-9.647 21.548-21.548.001-8.435-4.847-15.737-11.908-19.275z" fill="url(#SVGID_23_)"/></g><g><circle cx="294.4" cy="478.837" fill="url(#SVGID_24_)" r="27.047"/><path d="m306.499 454.642c1.824 3.641 2.852 7.749 2.852 12.099 0 14.938-12.109 27.047-27.047 27.047-4.349 0-8.458-1.028-12.099-2.853 4.441 8.863 13.606 14.948 24.195 14.948 14.938 0 27.047-12.109 27.047-27.047 0-10.588-6.085-19.753-14.948-24.194z" fill="url(#SVGID_25_)"/></g><g><circle cx="226.992" cy="422.902" fill="url(#SVGID_26_)" r="13.716"/><path d="m233.128 410.633c.925 1.846 1.447 3.93 1.447 6.135 0 7.575-6.141 13.716-13.716 13.716-2.206 0-4.289-.521-6.135-1.447 2.252 4.495 6.9 7.58 12.269 7.58 7.575 0 13.716-6.141 13.716-13.716-.001-5.368-3.087-10.016-7.581-12.268z" fill="url(#SVGID_27_)"/></g><g><circle cx="261.724" cy="400.766" fill="url(#SVGID_28_)" r="11.774"/><circle cx="190.083" cy="366.108" fill="url(#SVGID_29_)" r="11.774"/><circle cx="215.291" cy="377.25" fill="url(#SVGID_30_)" r="7.049"/><circle cx="176.822" cy="387.618" fill="url(#SVGID_31_)" r="7.049"/><circle cx="315.351" cy="388.993" fill="url(#SVGID_32_)" r="7.049"/><circle cx="280.546" cy="374.5" fill="url(#SVGID_33_)" r="7.049"/><circle cx="249.791" cy="358.99" fill="url(#SVGID_34_)" r="7.049"/><circle cx="232.196" cy="391.629" fill="url(#SVGID_35_)" r="5.204"/><circle cx="335.022" cy="374.5" fill="url(#SVGID_36_)" r="5.204"/><circle cx="289.196" cy="391.629" fill="url(#SVGID_37_)" r="5.204"/></g></g></svg>