<svg id="Layer_1" enable-background="new 0 0 512 512" height="512" viewBox="0 0 512 512" width="512" xmlns="http://www.w3.org/2000/svg"><g><g><g><path d="m402.749 448.132h-391.92c-3.62-12.714-8.11-28.775-9.67-45.327-1.45-15.492-.12-29.105 4.07-41.619 5.78-17.291 16.9-31.414 27.64-45.087 5.73-7.276 11.65-14.802 16.49-22.549 13.89-26.337 17.91-54.512 11.31-79.389l2.68-7.866v-99.919c0-58.75 47.65-106.376 106.43-106.376h73.07c58.77 0 106.43 47.626 106.43 106.376v99.719l3.11 8.446c-6.39 24.388-2.19 52.423 11.83 79.01 4.85 7.746 10.76 15.272 16.49 22.549 10.75 13.673 21.86 27.796 27.64 45.087 9.569 28.594 2.5 58.879-5.6 86.945z" fill="#4b6675"/><path d="m402.749 448.132h-25c8.1-28.066 15.17-58.35 5.6-86.946-5.78-17.291-16.89-31.414-27.64-45.087-5.73-7.276-11.64-14.802-16.49-22.549-14.02-26.586-18.22-54.622-11.83-79.01l-3.11-8.446v-99.719c0-58.749-47.66-106.375-106.43-106.375h25c58.77 0 106.43 47.626 106.43 106.376v99.719l3.11 8.446c-6.39 24.388-2.19 52.423 11.83 79.01 4.85 7.746 10.76 15.272 16.49 22.549 10.75 13.673 21.86 27.796 27.64 45.087 9.569 28.594 2.5 58.879-5.6 86.945z" fill="#294a59"/><g><g><g><g><path d="m413.54 482.884v21.619c0 4.138-3.36 7.496-7.5 7.496h-398.54c-4.14 0-7.5-3.358-7.5-7.496v-21.619c0-29.345 20.82-54.562 49.65-60.139l91-17.611 28.33-5.477 74.62-.19s.02 0 .05.01l29.28 5.667 90.97 17.601c28.82 5.577 49.64 30.794 49.64 60.139z" fill="#00b1ff"/><path d="m413.54 482.884v21.619c0 4.138-3.36 7.496-7.5 7.496h-32.81c3.3 0 5.98-3.358 5.98-7.496v-11.624c0-29.345-17.72-51.164-39.61-60.139-31.43-12.883-94.01-32.643-95.95-33.263l29.28 5.667 90.97 17.601c28.82 5.577 49.64 30.794 49.64 60.139z" fill="#008cff"/><path d="m272.93 405.143c-.13 1.229-.3 2.449-.5 3.658-5.16 31.574-32.59 55.672-65.64 55.672-34.32 0-62.57-25.977-66.14-59.34l28.33-5.477 74.62-.19s.02 0 .05.01z" fill="#e4f4ff"/><path d="m243.65 399.476 29.28 5.667c-.13 1.229-.3 2.449-.5 3.658-15.93-5.257-27.95-9.055-28.78-9.325z" fill="#c0eaf7"/><path d="m239.06 386.163c.88 4.578 2.4 9.055 4.54 13.303 0 10.295-4.17 19.62-10.93 26.367-6.75 6.747-16.08 10.924-26.38 10.924s-19.63-4.178-26.38-10.924-10.93-16.072-10.93-26.367c2.18-4.318 3.72-8.885 4.59-13.553.59-3.108.88-6.267.88-9.425 0-5.957-1.04-11.934-3.15-17.651l-2.32-6.297h74.62l-2.32 6.297c-3.25 8.826-3.97 18.271-2.22 27.326z" fill="#ffeac5"/><path d="m241.28 358.837c-3.25 8.826-3.97 18.271-2.22 27.326-10.02 4.867-21.11 7.446-32.36 7.446h-.29c-11.42 0-22.68-2.669-32.84-7.696.59-3.108.88-6.267.88-9.425 0-5.957-1.04-11.934-3.15-17.651l-2.32-6.297h74.62z" fill="#ffc69f"/></g></g></g></g><g><path d="m65.485 176.16c-7.579 7.668-11.68 17.827-11.547 28.606.268 21.789 18.222 39.515 40.023 39.515h7.5v-80.012h-7.5c-10.785-.001-20.898 4.222-28.476 11.891z" fill="#ffc69f"/></g><g><path d="m347.666 176.16c7.579 7.668 11.68 17.827 11.547 28.606-.268 21.789-18.222 39.515-40.023 39.515h-7.5v-80.012h7.5c10.784-.001 20.897 4.222 28.476 11.891z" fill="#ffc69f"/></g><path d="m319.888 249.735c-1.022-10.415-1.324-43.86-.7-77.798.001-.046.001-.092.001-.138v-.036c0-4.14-3.357-7.496-7.5-7.496-15.347 0-34.21-39.541-34.21-71.71 0-4.14-3.357-7.496-7.5-7.496s-7.5 3.356-7.5 7.496c0 12.588-4.193 30.768-24.17 45.891-22.63 17.132-59.252 25.818-108.847 25.818h-28.001c-2.013 0-3.941.809-5.352 2.244s-2.185 3.378-2.147 5.39c.626 33.969.325 67.458-.707 77.973-.237 2.703-.357 5.6-.357 8.611 0 27.689 22.461 59.891 66.743 95.699 13.19 10.729 29.811 16.633 46.787 16.632h.293c16.982 0 33.583-5.892 46.745-16.588 44.316-35.84 66.787-68.052 66.787-95.74 0-2.972-.12-5.885-.365-8.752z" fill="#ffeac5"/><path d="m284.549 130.179c-29.401 16.919-76.669 33.304-149.834 34.056 46.931-.596 81.77-9.26 103.594-25.791 19.98-15.122 24.17-33.303 24.17-45.887 0-4.138 3.36-7.496 7.5-7.496 4.15 0 7.5 3.358 7.5 7.496 0 12.335 2.78 25.758 7.07 37.622z" fill="#ffc69f"/></g></g><path d="m512 441.479c0 39.53-32.52 71.46-72.26 70.5-.21-.01-.42-.01-.62-.02-36.85-1.22-66.9-31.17-68.11-68.09-.72-21.67 8.35-41.23 23.12-54.62 9.48-8.6 14.81-20.86 14.81-33.66v-187.019c0-8.99 3.64-17.12 9.53-23.01 5.5-5.5 12.96-9.03 21.23-9.48.59-.03 1.18-.05 1.78-.05 17.98 0 32.55 14.57 32.55 32.54v187.02c0 12.93 5.55 25.18 15.08 33.91 14.07 12.889 22.89 31.399 22.89 51.979z" fill="#e4f4ff"/><path d="m512 441.479c0 39.53-32.52 71.46-72.26 70.5-.21-.01-.42-.01-.62-.02 25.98-1.25 49.84-32.33 49.84-70.48 0-20.58-8.48-39.09-18.06-51.98-6.49-8.73-10.27-20.98-10.27-33.91v-187.019c0-17.37-9.26-31.56-20.93-32.49.59-.03 1.18-.05 1.78-.05 17.98 0 32.55 14.57 32.55 32.54v187.02c0 12.93 5.55 25.18 15.08 33.91 14.07 12.889 22.89 31.399 22.89 51.979z" fill="#c0eaf7"/><path d="m488.96 441.259c0 26.18-21.29 47.46-47.47 47.47h-.01c-4.31 0-8.49-.58-12.47-1.66-20.14-5.49-35-23.95-35-45.81 0-22.05 30.54-53.86 39.97-63.15v-210.879c0-1.69.56-3.25 1.52-4.5 0 0 .01-.01.01-.02 1.36-1.81 3.53-2.98 5.97-2.98h.01c4.14.01 7.49 3.36 7.49 7.5v210.88c9.43 9.289 39.98 41.099 39.98 63.149z" fill="#ff2261"/><path d="m488.96 441.259c0 26.18-21.29 47.46-47.47 47.47h-.01c-4.31 0-8.49-.58-12.47-1.66 21.63-5.48 42.71-23.93 42.71-45.81 0-22.05-20.8-53.66-30.23-62.95v-203.589c0-4.9-2.35-9.25-5.99-11.99 0 0 .01-.01.01-.02 1.36-1.81 3.53-2.98 5.97-2.98h.01c4.14.01 7.49 3.36 7.49 7.5v210.88c9.43 9.289 39.98 41.099 39.98 63.149z" fill="#b7305d"/></g></svg>