<svg id="Capa_1" enable-background="new 0 0 497.445 497.445" height="512" viewBox="0 0 497.445 497.445" width="512" xmlns="http://www.w3.org/2000/svg"><g><path d="m317.394 83.566c0-46.152-37.414-83.566-83.567-83.566-46.152 0-83.566 37.414-83.566 83.566 0 42.19 31.272 77.059 71.898 82.738l11.669 14.672 11.669-14.672c40.625-5.679 71.897-40.547 71.897-82.738z" fill="#dff6fd"/><path d="m497.012 240.717v132.006c0 3.409-2.763 6.172-6.172 6.172h-71.418-205.23l-1.72-59.57 29.83-29.83c4.51 4.5 9.82 8.02 15.6 10.41 5.77 2.39 12.01 3.66 18.39 3.66h18.212c12.74 0 24.959-5.061 33.968-14.07l26.85-26.85 28.85-37.57 9.47 9.47h97.198c3.409 0 6.172 2.763 6.172 6.172z" fill="#f6a96c"/><path d="m414.782 351.395-74.11-74.11-68.6-64.86h-73.55-57.4c-9.18 0-18.06 3.27-25.04 9.23l-19.06 16.27h-89.408c-3.585 0-6.496 2.897-6.513 6.482l-.668 141.514c-.017 3.609 2.904 6.544 6.513 6.544h79.476 74.325l63.358 60.921 17.987-2.715 7.32 7.484 12.74 12.75c9.4 9.39 24.63 9.39 34.02 0 4.7-4.7 7.04-10.86 7.04-17.01 0-6.16-2.34-12.32-7.04-17.01l6.54 6.54c9.39 9.39 24.62 9.39 34.01 0 4.69-4.7 7.04-10.86 7.04-17.01 0-6.16-2.35-12.32-7.04-17.01l16.08 16.08c9.4 9.39 24.62 9.39 34.02 0 4.69-4.69 7.04-10.85 7.04-17.01 0-6.15-2.35-12.31-7.04-17.01l-6.05-6.05c9.39 9.39 24.62 9.39 34.01 0 4.7-4.7 7.05-10.85 7.05-17.01 0-6.15-2.35-12.31-7.05-17.01z" fill="#fed2a4"/><path d="m132.092 351.553h-53.19-78.307l-.162 34.368c-.017 3.609 2.904 6.544 6.513 6.544h79.476 45.669v-40.912z" fill="#ffbd86"/><g id="XMLID_233_"><g><path d="m384.172 225.075-28.85 37.57-26.85 26.85c-9.009 9.009-21.228 14.07-33.968 14.07h-18.212c-6.38 0-12.62-1.27-18.39-3.66-4.952-2.048-9.559-4.925-13.613-8.537-1.146-1.021-2.887-.973-3.973.113l-27.844 27.844c-5.59 5.59-12.91 8.39-20.23 8.39-7.33 0-14.65-2.8-20.23-8.39-11.18-11.17-11.18-29.28 0-40.46l68.45-68.45c7.45-7.46 17.57-11.64 28.11-11.64h72.83c10.54 0 20.65 4.18 28.11 11.64z" fill="#f6a96c"/></g></g><g id="XMLID_86_"><g><path d="m384.575 225.075-28.85 37.57-26.85 26.85c-9.009 9.009-21.228 14.07-33.968 14.07h-18.212c-6.38 0-12.62-1.27-18.39-3.66-4.952-2.048-9.559-4.925-13.613-8.537-1.146-1.021-2.887-.973-3.973.113l-27.844 27.844c-5.59 5.59-12.91 8.39-20.23 8.39-7.33 0-14.65-2.8-20.23-8.39-11.18-11.17-11.18-29.28 0-40.46l68.45-68.45c7.45-7.46 17.57-11.64 28.11-11.64h72.83c10.54 0 20.65 4.18 28.11 11.64z" fill="#f6a96c"/></g></g><path d="m190.159 306.165 68.45-68.45c7.45-7.46 17.57-11.64 28.11-11.64h72.83c7.117 0 25.981 2.865 32.023 6.4l-6.997-7.4-14.66-14.66c-7.46-7.46-17.57-11.64-28.11-11.64h-72.83c-10.54 0-20.66 4.18-28.11 11.64l-68.45 68.45c-11.18 11.18-11.18 29.29 0 40.46 2.768 2.773 5.965 4.857 9.378 6.256.201-7.046 2.984-14.034 8.366-19.416z" fill="#ea9b58"/><g id="XMLID_232_"><g fill="#f6a96c"><path d="m241.162 432.215c9.4 9.39 9.4 24.62 0 34.01l-24.17 24.17c-4.7 4.7-10.85 7.05-17 7.05-6.16 0-12.32-2.35-17.01-7.05-9.4-9.39-9.4-24.62 0-34.01l24.17-24.17c4.7-4.7 10.85-7.05 17-7.05 6.16 0 12.32 2.35 17.01 7.05z"/><path d="m207.152 398.195c9.39 9.39 9.39 24.62 0 34.02l-24.17 24.17c-4.7 4.69-10.86 7.04-17.01 7.04-6.16 0-12.32-2.35-17.01-7.04-9.39-9.4-9.39-24.63 0-34.02l24.17-24.17c4.7-4.7 10.86-7.04 17.01-7.04 6.16 0 12.31 2.34 17.01 7.04z"/><path d="m173.132 364.175c9.4 9.4 9.4 24.63 0 34.02l-24.17 24.17c-4.69 4.69-10.85 7.04-17.01 7.04-6.15 0-12.31-2.35-17.01-7.04-9.39-9.39-9.39-24.62 0-34.02l24.18-24.17c4.69-4.7 10.85-7.04 17.01-7.04 6.15 0 12.3 2.34 17 7.04z"/><path d="m139.122 330.165c9.39 9.39 9.39 24.62 0 34.01l-24.18 24.17c-4.69 4.7-10.85 7.05-17.01 7.05-6.15 0-12.3-2.35-17-7.05-9.4-9.39-9.4-24.62 0-34.01l24.17-24.17c4.69-4.7 10.85-7.05 17.01-7.05 6.15 0 12.31 2.35 17.01 7.05z"/></g></g><g id="XMLID_84_"><g fill="#ea9b58"><path d="m202.117 473.395 24.17-24.17c4.7-4.7 10.85-7.05 17-7.05 1.329 0 2.656.131 3.971.35-1.091-3.775-3.119-7.336-6.096-10.31-4.69-4.7-10.85-7.05-17.01-7.05-6.15 0-12.3 2.35-17 7.05l-24.17 24.17c-9.4 9.39-9.4 24.62 0 34.01 3.678 3.686 8.262 5.904 13.039 6.7-2.354-8.143-.327-17.284 6.096-23.7z"/><path d="m168.097 439.375 24.17-24.17c4.7-4.7 10.86-7.04 17.01-7.04 1.328 0 2.653.131 3.966.349-1.089-3.778-3.115-7.342-6.091-10.318-4.7-4.7-10.85-7.04-17.01-7.04-6.15 0-12.31 2.34-17.01 7.04l-24.17 24.17c-9.39 9.39-9.39 24.62 0 34.02 3.679 3.679 8.266 5.896 13.045 6.691-2.35-8.147-.325-17.287 6.09-23.702z"/><path d="m134.077 405.355 24.18-24.17c4.69-4.7 10.85-7.04 17.01-7.04 1.326 0 2.65.131 3.961.349-1.091-3.777-3.119-7.341-6.096-10.318-4.7-4.7-10.85-7.04-17-7.04-6.16 0-12.32 2.34-17.01 7.04l-24.18 24.17c-9.39 9.4-9.39 24.63 0 34.02 3.685 3.677 8.271 5.895 13.043 6.69-2.347-8.142-.321-17.281 6.092-23.701z"/><path d="m100.067 371.345 24.17-24.17c4.69-4.7 10.85-7.05 17.01-7.05 1.327 0 2.651.131 3.964.35-1.09-3.774-3.115-7.336-6.089-10.31-4.7-4.7-10.86-7.05-17.01-7.05-6.16 0-12.32 2.35-17.01 7.05l-24.17 24.17c-9.4 9.39-9.4 24.62 0 34.01 3.687 3.687 8.268 5.906 13.039 6.7-2.354-8.143-.327-17.284 6.096-23.7z"/></g></g><g><g id="XMLID_231_"><g><g fill="#ffbd86"><path d="m381.212 377.143-14.401-14.392c-.003-.003-.005-.006-.007-.008l-25.284-25.284c-2.407-2.405-6.307-2.405-8.713 0-2.406 2.407-2.406 6.307 0 8.713l25.284 25.284c.003.003.006.005.008.008l14.4 14.392c1.203 1.202 2.78 1.804 4.357 1.804 1.576 0 3.153-.602 4.357-1.804 2.405-2.407 2.405-6.307-.001-8.713z"/><path d="m293.239 358.102c-2.153-2.116-5.641-2.116-7.794 0-2.152 2.117-2.152 5.548 0 7.665l45.164 44.421c1.076 1.058 2.487 1.587 3.897 1.587s2.821-.529 3.897-1.587c2.152-2.117 2.152-5.548 0-7.665z"/><path d="m261.641 392.761c-2.649-2.647-6.943-2.649-9.593 0-2.649 2.649-2.649 6.943 0 9.593l34.916 34.917c1.325 1.324 3.06 1.986 4.796 1.986 1.735 0 3.472-.662 4.796-1.986 2.649-2.649 2.649-6.943 0-9.593z"/></g></g></g></g><path d="m239.243 33.778c-2.93-2.928-7.677-2.929-10.607.001l-6.078 6.078c-.047.047-.093.094-.139.143l-1.186 1.251v-10.539c0-4.143-3.358-7.5-7.5-7.5s-7.5 3.357-7.5 7.5v18.842c0 .78.119 1.531.34 2.238-.023 0-.045-.003-.068-.003h-21.348c-4.142 0-7.5 3.357-7.5 7.5s3.358 7.5 7.5 7.5h10.469l-7.403 7.402c-2.929 2.93-2.929 7.678 0 10.607 1.464 1.464 3.384 2.196 5.303 2.196s3.839-.732 5.303-2.196l7.403-7.404v10.469c0 4.143 3.358 7.5 7.5 7.5s7.5-3.357 7.5-7.5v-22.025c0-1.777-.621-3.408-1.654-4.693.075.002.15.01.226.01 1.986 0 3.969-.784 5.444-2.34l7.987-8.424 6.007-6.008c2.93-2.927 2.93-7.677.001-10.605zm-25.302 24.571c-.002-.014-.004-.027-.006-.041.011.014.021.028.033.042-.01 0-.018-.001-.027-.001z" fill="#f8a5af"/><circle cx="213.734" cy="59.288" fill="#f07281" r="17.925"/><g><path d="m283.032 75.665h-7.184c-4.143 0-7.5-3.357-7.5-7.5s3.357-7.5 7.5-7.5h7.184c4.143 0 7.5 3.357 7.5 7.5s-3.357 7.5-7.5 7.5z" fill="#00f2a6"/></g><path d="m266.221 121.893-15.109 8.723c-6.943 4.008-15.82 1.63-19.829-5.313-4.008-6.943-1.63-15.82 5.313-19.829l15.109-8.723c6.943-4.008 15.82-1.63 19.829 5.313 4.009 6.943 1.63 15.82-5.313 19.829z" fill="#fee45a"/><g><path d="m193.753 121.183h-4.297c-4.142 0-7.5-3.357-7.5-7.5s3.358-7.5 7.5-7.5h4.297c4.142 0 7.5 3.357 7.5 7.5s-3.358 7.5-7.5 7.5z" fill="#00f2a6"/></g></g></svg>