<svg id="Layer_1" enable-background="new 0 0 512.003 512.003" height="512" viewBox="0 0 512.003 512.003" width="512" xmlns="http://www.w3.org/2000/svg"><g><g><path d="m398.751 106.433v81.55c0 4.14-3.36 7.5-7.5 7.5h-270.93c-4.14 0-7.5-3.36-7.5-7.5v-81.55c0-58.69 47.75-106.43 106.43-106.43h73.07c58.68 0 106.43 47.74 106.43 106.43z" fill="#4b6675"/><path d="m398.751 106.433v81.55c0 4.14-3.36 7.5-7.5 7.5h-22c4.14 0 7.5-3.36 7.5-7.5v-81.55c0-58.78-47.65-106.43-106.43-106.43h22c58.68 0 106.43 47.74 106.43 106.43z" fill="#294a59"/><g><path d="m462.771 482.873v21.63c0 4.14-3.36 7.5-7.5 7.5h-398.54c-4.14 0-7.5-3.36-7.5-7.5v-21.63c0-29.36 20.82-54.59 49.65-60.17l91-17.62 28.33-5.48 74.62-.19s.02 0 .05.01l29.28 5.67 90.97 17.61c28.82 5.58 49.64 30.81 49.64 60.17z" fill="#00b1ff"/><path d="m462.771 482.873v21.63c0 4.14-3.36 7.5-7.5 7.5h-32.81c3.3 0 5.98-3.36 5.98-7.5v-11.63c0-29.36-17.72-51.19-39.61-60.17-31.43-12.89-94.01-32.66-95.95-33.28l29.28 5.67 90.97 17.61c28.82 5.58 49.64 30.81 49.64 60.17z" fill="#008cff"/><path d="m322.161 405.093c-.13 1.23-.3 2.45-.5 3.66-5.16 31.59-32.59 55.7-65.64 55.7-34.32 0-62.57-25.99-66.14-59.37l28.33-5.48 74.62-.19s.02 0 .05.01z" fill="#e4f4ff"/><path d="m292.881 399.423 29.28 5.67c-.13 1.23-.3 2.45-.5 3.66-15.93-5.26-27.95-9.06-28.78-9.33z" fill="#c0eaf7"/><path d="m288.291 386.103c.88 4.58 2.4 9.06 4.54 13.31 0 10.3-4.17 19.63-10.93 26.38-6.75 6.75-16.08 10.93-26.38 10.93s-19.63-4.18-26.38-10.93-10.93-16.08-10.93-26.38c2.18-4.32 3.72-8.89 4.59-13.56.59-3.11.88-6.27.88-9.43 0-5.96-1.04-11.94-3.15-17.66l-2.32-6.3h74.62l-2.32 6.3c-3.25 8.83-3.97 18.28-2.22 27.34z" fill="#ffeac5"/><path d="m290.511 358.763c-3.25 8.83-3.97 18.28-2.22 27.34-10.02 4.87-21.11 7.45-32.36 7.45h-.29c-11.42 0-22.68-2.67-32.84-7.7.59-3.11.88-6.27.88-9.43 0-5.96-1.04-11.94-3.15-17.66l-2.32-6.3h74.62z" fill="#ffc69f"/></g><g fill="#ffc69f"><path d="m114.7 176.445c-7.579 7.672-11.68 17.836-11.548 28.621.268 21.8 18.222 39.535 40.023 39.535h7.5v-80.053h-7.5c-10.783-.001-20.896 4.224-28.475 11.897z"/><path d="m396.874 176.481c-7.578-7.672-17.691-11.898-28.476-11.898h-7.5v80.053h7.5c21.802 0 39.756-17.736 40.022-39.535.134-10.783-3.967-20.947-11.546-28.62z"/></g><path d="m369.461 258.813c0 27.71-22.47 59.93-66.78 95.79-13.17 10.7-29.77 16.6-46.75 16.6h-.29c-16.98 0-33.6-5.91-46.79-16.64-44.28-35.83-66.74-68.05-66.74-95.75 0-3 .12-5.9.36-8.61 1.39-14.22 1.37-67.51-.04-105.67-.26-6.92 2.24-13.46 7.04-18.42 2.77-2.86 7.43-3.11 10.42-.48 13.48 11.82 29.74 19.97 47.13 23.79h.02c6.8 1.5 13.77 2.34 20.82 2.47 25.34.47 50.07-8.14 69.63-24.3.98-.81 2.16-1.36 3.41-1.59l.53-.1c3.3-.62 6.71 1.03 8.21 4.28.75 1.62.83 3.49.35 5.22-.24.89-.5 1.77-.77 2.64-3.83 12.38-10.36 23.62-18.96 32.99-2.31 2.5-.63 6.42 2.49 6.67.3.02.61.01.93-.04 2.28-.34 4.54-.8 6.79-1.36 23.56-5.91 42.32-23.19 50.18-46.21 1.05-3.08 4.01-5.19 7.39-5.07 2.22.08 4.29 1.21 5.68 2.95 3.53 4.44 5.44 9.96 5.44 15.64 0 .31-.01.62-.02.93-.08 2.22-.16 4.5-.23 6.82-1.18 37.41-1.12 85.4.19 98.7.24 2.85.36 5.77.36 8.75z" fill="#ffeac5"/><path d="m369.161 143.613c0 .31-.01.62-.02.93-.08 2.22-.16 4.5-.23 6.82-11.07 12.11-36.37 32.77-76.16 26.34.3.02.61.01.93-.04 2.28-.34 4.54-.8 6.79-1.36 23.56-5.91 42.32-23.19 50.18-46.21 1.05-3.08 4.01-5.19 7.39-5.07 2.22.08 4.29 1.21 5.68 2.95 3.53 4.44 5.44 9.96 5.44 15.64z" fill="#ffc69f"/><path d="m309.991 135.403c-.24.89-.5 1.77-.77 2.64-19.39 16.41-49.5 29.48-77.36 23.85-8.52-1.73-17.17-6.43-24.82-12.47 6.8 1.5 13.77 2.34 20.82 2.47 25.34.47 50.07-8.14 69.63-24.3.98-.81 2.16-1.36 3.41-1.59l.53-.1c3.3-.62 6.71 1.03 8.21 4.28.75 1.62.83 3.49.35 5.22z" fill="#ffc69f"/><g><path d="m510.751 21.193-37.43 35.83 18.53 6.53c2.95 1.04 3.65 4.91 1.24 6.91l-55.05 45.98c-3.05 2.55-7.56-.38-6.47-4.21l11.79-41.45-15.11-5.92c-2.4-.94-3.32-3.85-1.9-6l37.9-57.05c1.02-1.55 2.96-2.2 4.71-1.58l30.38 10.72 9.96 3.51c2.84 1 3.63 4.65 1.45 6.73z" fill="#ffe527"/><path d="m510.751 21.193-37.43 35.83-13.89-5.3 39.91-40.77 9.96 3.51c2.84 1 3.63 4.65 1.45 6.73z" fill="#ffbd29"/></g><g><path d="m1.251 21.193 37.43 35.83-18.53 6.53c-2.95 1.04-3.65 4.91-1.24 6.91l55.05 45.98c3.05 2.55 7.56-.38 6.47-4.21l-11.79-41.45 15.11-5.92c2.4-.94 3.32-3.85 1.9-6l-37.9-57.05c-1.02-1.55-2.96-2.2-4.71-1.58l-30.38 10.72-9.96 3.51c-2.84 1-3.63 4.65-1.45 6.73z" fill="#ffe527"/><path d="m1.251 21.193 37.43 35.83 13.89-5.3-39.91-40.77-9.96 3.51c-2.84 1-3.63 4.65-1.45 6.73z" fill="#ffbd29"/></g></g><path d="m77.56 202.073c2.835 0 5.548-1.616 6.814-4.359 1.736-3.761.094-8.217-3.667-9.953l-24.279-11.206 10.437-7.13c2.229-1.523 3.468-4.127 3.243-6.818-.226-2.69-1.879-5.053-4.331-6.184l-36.287-16.748c-3.763-1.736-8.217-.094-9.953 3.667s-.094 8.217 3.667 9.953l24.28 11.205-10.437 7.13c-2.229 1.523-3.468 4.127-3.243 6.818.226 2.69 1.879 5.053 4.331 6.184l36.287 16.748c1.018.47 2.086.693 3.138.693z" fill="#ffe527"/><path d="m487.842 140.3-36.286 16.748c-2.452 1.131-4.106 3.494-4.331 6.184-.226 2.691 1.014 5.295 3.243 6.818l10.437 7.13-24.278 11.206c-3.762 1.736-5.403 6.191-3.667 9.953 1.266 2.743 3.979 4.359 6.814 4.359 1.052 0 2.12-.223 3.138-.692l36.286-16.748c2.452-1.131 4.106-3.494 4.331-6.184.226-2.691-1.014-5.295-3.243-6.818l-10.437-7.13 24.278-11.206c3.762-1.736 5.403-6.192 3.667-9.953-1.735-3.762-6.192-5.402-9.952-3.667z" fill="#ffe527"/><g fill="#294a59"><path d="m214.262 33.764c-4.142 0-7.5 3.358-7.5 7.5 0 4.07-3.311 7.381-7.381 7.381-4.142 0-7.5 3.358-7.5 7.5s3.358 7.5 7.5 7.5c12.341 0 22.381-10.04 22.381-22.381 0-4.142-3.358-7.5-7.5-7.5z"/><path d="m259.262 63.645c4.143 0 7.5-3.358 7.5-7.5s-3.357-7.5-7.5-7.5c-4.069 0-7.381-3.311-7.381-7.381 0-4.142-3.357-7.5-7.5-7.5s-7.5 3.358-7.5 7.5c0 12.341 10.04 22.381 22.381 22.381z"/><path d="m199.381 78.044c-4.142 0-7.5 3.358-7.5 7.5s3.358 7.5 7.5 7.5c4.07 0 7.381 3.311 7.381 7.381 0 4.142 3.358 7.5 7.5 7.5s7.5-3.358 7.5-7.5c0-12.341-10.04-22.381-22.381-22.381z"/><path d="m244.381 107.925c4.143 0 7.5-3.358 7.5-7.5 0-4.07 3.312-7.381 7.381-7.381 4.143 0 7.5-3.358 7.5-7.5s-3.357-7.5-7.5-7.5c-12.341 0-22.381 10.04-22.381 22.381 0 4.142 3.358 7.5 7.5 7.5z"/></g></g></svg>