<svg id="Capa_1" enable-background="new 0 0 512 512" height="512" viewBox="0 0 512 512" width="512" xmlns="http://www.w3.org/2000/svg"><g><path d="m376.527 211.703c-37.705-51.445-58.755-97.284-66.226-142.094l-4.57-27.495c-4.086-24.404-24.99-42.114-49.731-42.114s-45.645 17.71-49.731 42.129l-4.57 27.48c-7.471 44.81-28.521 90.648-66.226 142.094-9.463 12.905-14.473 28.228-14.473 44.297 0 41.353 33.647 75 75 75h20.695c10.551 9.223 24.192 15 39.305 15s28.755-5.777 39.305-15h20.695c41.353 0 75-33.647 75-75 0-16.069-5.01-31.392-14.473-44.297z" fill="#fcced3"/><path d="m316 331c41.353 0 75-33.647 75-75 0-16.069-5.01-31.392-14.473-44.297-37.705-51.445-58.755-97.284-66.226-142.094l-4.57-27.495c-4.086-24.404-24.99-42.114-49.731-42.114v346c15.114 0 28.755-5.777 39.305-15z" fill="#ffa7b3"/><path d="m316 271c-8.291 0-15 6.709-15 15 0 24.814-20.186 45-45 45s-45-20.186-45-45c0-8.291-6.709-15-15-15s-15 6.709-15 15c0 41.353 33.647 75 75 75s75-33.647 75-75c0-8.291-6.709-15-15-15z" fill="#ffa7b3"/><path d="m331 286c0-8.291-6.709-15-15-15s-15 6.709-15 15c0 24.814-20.186 45-45 45v30c41.353 0 75-33.647 75-75z" fill="#ff8596"/><path d="m235.009 443.544c-.015-.015-.015-.029-.015-.029l-26.001-45.015c-2.681-4.644-7.837-6.965-12.993-6.965s-10.313 2.322-12.993 6.965l-26.016 45.044c-3.926 6.826-5.991 14.59-5.991 22.456 0 24.814 20.186 46 45 46s45-21.186 45-46c0-7.866-2.065-15.63-5.991-22.456z" fill="#e0f4fe"/><path d="m241 466c0-7.866-2.065-15.63-5.991-22.456-.015-.015-.015-.029-.015-.029l-26.001-45.015c-2.681-4.644-7.837-6.965-12.993-6.965v120.465c24.814 0 45-21.186 45-46z" fill="#b7e4f8"/><path d="m355.009 443.544c-.015-.015-.015-.029-.015-.029l-26.001-45.015c-2.681-4.644-7.837-6.965-12.993-6.965s-10.313 2.322-12.993 6.965l-26.016 45.044c-3.926 6.826-5.991 14.59-5.991 22.456 0 24.814 20.186 46 45 46s45-21.186 45-46c0-7.866-2.065-15.63-5.991-22.456z" fill="#e0f4fe"/><path d="m361 466c0-7.866-2.065-15.63-5.991-22.456-.015-.015-.015-.029-.015-.029l-26.001-45.015c-2.681-4.644-7.837-6.965-12.993-6.965v120.465c24.814 0 45-21.186 45-46z" fill="#b7e4f8"/></g></svg>