<svg id="Capa_1" enable-background="new 0 0 496.15 496.15" height="512" viewBox="0 0 496.15 496.15" width="512" xmlns="http://www.w3.org/2000/svg"><g><path d="m228.379 61.524-87.944 47.787-4.293 92.187-26.32 45.859 20.95 12.984v45.937l33.16 9.905.831 13.639v24.435l-12 1.035s-22.501 4.499-22.876 4.124 0 17.867 0 17.867l12.52 21.633c2.128.579 4.365.894 6.677.894h56.448c2.586 0 4.682 2.096 4.682 4.682v88.044c0 1.996 1.618 3.615 3.615 3.615h154.551c1.996 0 3.615-1.618 3.615-3.615v-95.446-271.65z" fill="#fed2a4"/><path d="m210.214 53.44-62.88 28.18-7.83 7.56c-11.51 11.12-18.02 26.43-18.02 42.44v56.23c0 2.81-.73 5.57-2.13 8.01l-28.79 50.19c-2.1 3.66-.74 8.34 2.99 10.31l17.386 9.204 6.094 3.226v38.62c0 3.56 2.32 6.7 5.71 7.74l33.79 10.37c2.48.76 4.17 3.05 4.17 5.64v.065 10.903 5.442c0 3.258-2.642 5.9-5.9 5.9h-26.17c-2.717 0-4.92 2.203-4.92 4.92v16.05c0 14.02 11.36 25.37 25.37 25.37h4.73c-5.875-4.645-9.649-11.83-9.649-19.906v-3.854c0-9.453 7.663-17.116 17.116-17.116h7.945c6.588 0 11.929-5.341 11.929-11.929v-10.381c0-.108-.018-.212-.024-.318 0-.026.004-.052.004-.078v-16.41c0-2.59-1.69-4.88-4.17-5.64l-33.79-10.37c-3.39-1.04-5.71-4.18-5.71-7.74v-38.62l-17.118-9.062 20.223-35.255c1.4-2.44 2.13-5.2 2.13-8.01v-56.23c0-16.01 6.51-31.32 18.02-42.44l2.773-2.677c3.356-3.24 7.135-6.011 11.235-8.236l52.049-28.254 4.654 3.427 140.564 62.558v-7.829z" fill="#ffbd86"/><circle cx="13.508" cy="342.039" fill="#6bd9e7" r="13.252"/><g><path d="m97.087 329.822c-.967 0-1.95-.188-2.898-.586l-19.128-8.022c-3.82-1.603-5.618-5.998-4.016-9.817 1.603-3.82 5.999-5.618 9.817-4.016l19.128 8.023c3.82 1.602 5.618 5.997 4.016 9.817-1.204 2.872-3.988 4.601-6.919 4.601z" fill="#6bd9e7"/></g><g><path d="m77.965 377.283c-2.931 0-5.714-1.729-6.919-4.601-1.602-3.82.196-8.215 4.016-9.817l19.128-8.023c3.816-1.6 8.214.195 9.817 4.016 1.602 3.82-.196 8.215-4.016 9.817l-19.128 8.022c-.947.398-1.93.586-2.898.586z" fill="#6bd9e7"/></g><g><path d="m65.534 349.54h-8.248c-4.142 0-7.5-3.358-7.5-7.5s3.358-7.5 7.5-7.5h8.248c4.142 0 7.5 3.358 7.5 7.5s-3.358 7.5-7.5 7.5z" fill="#6bd9e7"/></g><g><path d="m25.759 287.394c-.896 0-1.806-.161-2.691-.502l-10.348-3.98c-3.866-1.487-5.795-5.827-4.308-9.692 1.487-3.867 5.828-5.797 9.692-4.308l10.348 3.98c3.866 1.487 5.795 5.827 4.308 9.692-1.146 2.981-3.987 4.81-7.001 4.81z" fill="#6bd9e7"/></g><g><path d="m14.962 415.681c-3.033 0-5.887-1.852-7.02-4.857-1.461-3.876.497-8.202 4.374-9.663l10.375-3.91c3.875-1.461 8.202.498 9.663 4.374s-.497 8.202-4.374 9.663l-10.375 3.91c-.871.327-1.765.483-2.643.483z" fill="#6bd9e7"/></g><g id="XMLID_193_"><g><path d="m476.268 236.445-111.05-8.354-9.564 12.629c.32 1.81.49 3.67.49 5.58v17.54c0 9.1-3.89 17.76-10.69 23.8l-27.32 24.26c-7.5 6.66-8.23 18.11-1.65 25.68l46.36 53.23c6.64 7.62 18.21 8.41 25.82 1.76l36.99-32.34c22.32-19.51 39.88-43.37 51.86-69.76 5.14-11.32 9.25-23.1 12.27-35.21z" fill="#baafb9"/><path d="m495.894 205.51c0 16.93-2.09 33.63-6.11 49.75l-134.13-14.54c-2.64-14.92-15.67-26.25-31.34-26.25-8.79 0-16.75 3.56-22.51 9.32-5.77 5.76-9.33 13.72-9.33 22.51v24.374c0 .55-.265 1.066-.713 1.386l-25.967 18.56c-5.11 3.64-12.2-.01-12.2-6.28v-128.53c0-40.97-33.22-74.19-74.2-74.19h-30.7c-19.242 0-34.84-15.598-34.84-34.84v-35.72c0-6.108 4.952-11.06 11.06-11.06h165.47c113.5 0 205.51 92.01 205.51 205.51z" fill="#9b8e99"/><path d="m183.506 81.739c-18.305-1.042-32.829-16.393-32.829-34.959v-35.72c0-6.108 4.952-11.06 11.06-11.06h-36.823c-6.108 0-11.06 4.952-11.06 11.06v35.72c0 19.242 15.598 34.84 34.84 34.84h30.7c1.38 0 2.75.044 4.112.119z" fill="#8b8089"/></g></g></g></svg>