<svg id="Layer_1" enable-background="new 0 0 512.524 512.524" height="512" viewBox="0 0 512.524 512.524" width="512" xmlns="http://www.w3.org/2000/svg"><g><g><path d="m512.001 342.442v125.07c0 24.68-20.07 44.75-44.75 44.75h-422.5c-24.68 0-44.75-20.07-44.75-44.75v-125.47c0-2.49 1.24-4.81 3.3-6.21 5.9-3.99 12.16-7.31 18.68-9.93l436.01-.47 30.22-.03c7.19 2.78 14.08 6.42 20.54 10.85 2.03 1.4 3.25 3.72 3.25 6.19z" fill="#9fc3d7"/><path d="m512.001 342.442v125.07c0 24.68-20.07 44.75-44.75 44.75h-30.3c24.68 0 44.75-20.07 44.75-44.75v-125.07c0-2.47-1.22-4.79-3.25-6.19-6.44-4.41-13.3-8.04-20.46-10.82l30.22-.03c7.19 2.78 14.08 6.42 20.54 10.85 2.03 1.4 3.25 3.72 3.25 6.19z" fill="#7ca3bf"/><path d="m488.211 325.402-5.19 5.19c-1.75 1.75-3.52 3.48-5.31 5.17-28.75 27.41-62.52 48.88-100.49 63.91-38.86 15.37-80.02 23.21-122.36 23.31-42.37-.1-83.54-7.94-122.39-23.31-40.33-15.96-75.93-39.2-105.81-69.08l-4.68-4.69c11.88-4.81 24.61-7.29 37.64-7.29h392.18c12.59 0 24.89 2.31 36.41 6.79z" fill="#e4f4ff"/><path d="m432.651 318.612c-104.8 82.1-251.4 82.2-356.12 0 23.84 0 45.37-13.26 61.72-34.38 10.89-15.27 18.28-32.9 22.98-49.41 5.01-17.52 7-33.77 7-44.56h173.22c0 10.79 2 27.04 7 44.57 4.71 16.51 12.1 34.13 22.99 49.4 16.35 21.12 37.37 34.38 61.21 34.38z" fill="#ffeac5"/><path d="m348.451 234.832c-3.32 2.8-6.73 5.61-10.21 8.43-23.38 19.01-52.93 29.51-83.13 29.51h-.48c-30.26 0-59.84-10.52-83.3-29.61-3.45-2.79-6.82-5.57-10.1-8.34 5.01-17.52 7-33.77 7-44.56h173.22c0 10.79 2 27.04 7 44.57z" fill="#ffc69f"/><path d="m420.861 83.692c0 35.9-26.4 77.35-78.55 123.41 0 .01-.01.02-.02.03-6.22 5.5-12.81 11.06-19.77 16.69-19 15.45-42.94 23.95-67.41 23.95h-.48c-24.51 0-48.5-8.52-67.52-24-65.21-52.77-98.28-99.9-98.28-140.08 0-4.44.17-8.66.52-12.55.61-6.21 1.06-17.77 1.32-33.5.15-8.98.22-19.03.23-29.88 0-4.15 3.36-7.5 7.5-7.5h312.88c4.14 0 7.5 3.35 7.5 7.49.02 30.4.59 53.44 1.55 63.22.01.03.01.07.01.11.35 4.14.52 8.38.52 12.61z" fill="#ffeac5"/><g fill="#ffc69f"><path d="m420.341 71.082c.35 4.14.52 8.38.52 12.61 0 35.9-26.4 77.35-78.55 123.41 23.6-28.84 48.56-99.21 48.56-123.3 0-4.22-.17-8.46-.52-12.6 0-.04 0-.08-.01-.12-.96-9.77-1.53-32.81-1.55-63.21 0-4.14-3.36-7.5-7.5-7.5l.24-.11h29.75c4.14 0 7.5 3.35 7.5 7.49.02 30.4.59 53.44 1.55 63.22.01.03.01.07.01.11z"/><path d="m254.845 39.964c-17.708 0-32.113 14.406-32.113 32.113 0 4.142 3.358 7.5 7.5 7.5s7.5-3.358 7.5-7.5c0-9.437 7.677-17.113 17.113-17.113 9.437 0 17.114 7.677 17.114 17.113 0 4.142 3.358 7.5 7.5 7.5s7.5-3.358 7.5-7.5c-.001-17.707-14.407-32.113-32.114-32.113z"/><path d="m307.081 151.915c-9.867-16.188-23.379-38.359-52.24-38.359-28.853 0-42.366 22.17-52.232 38.359-1.573 2.581-1.443 5.854.33 8.302s4.841 3.591 7.785 2.904c28.735-6.728 59.49-6.729 88.245 0 .569.133 1.142.198 1.709.198 2.371 0 4.645-1.127 6.074-3.102 1.772-2.449 1.902-5.722.329-8.302z"/></g><path d="m488.211 325.402-5.19 5.19c-1.75 1.75-3.52 3.48-5.31 5.17-6.24-4.21-12.88-7.69-19.8-10.36-9.87-3.84-19.41-6.79-25.26-6.79h19.15c12.59 0 24.89 2.31 36.41 6.79z" fill="#c0eaf7"/></g><g><g><path d="m279.486 316.727c-.49 1.61-1.14 3.15-1.92 4.61l17.62 17.62c2.93 2.93 2.93 7.68 0 10.6-1.47 1.47-3.38 2.2-5.3 2.2s-3.84-.73-5.31-2.2l-17.62-17.61c-1.46.78-3 1.42-4.61 1.91v13.62c0 4.14-3.36 7.5-7.5 7.5s-7.5-3.36-7.5-7.5v-13.62c-1.61-.49-3.15-1.13-4.61-1.91l-6.56 6.55c-1.46 1.46-3.38 2.2-5.3 2.2s-3.84-.74-5.3-2.2c-2.93-2.93-2.93-7.68 0-10.61l6.55-6.55c-.78-1.46-1.43-3-1.92-4.61h-13.61c-4.14 0-7.5-3.36-7.5-7.5 0-4.15 3.36-7.5 7.5-7.5h13.61c.49-1.61 1.14-3.16 1.92-4.62l-17.62-17.62c-2.93-2.93-2.93-7.68 0-10.6 2.93-2.93 7.68-2.93 10.61 0l17.62 17.62c1.46-.79 3-1.43 4.61-1.92v-13.62c0-4.14 3.36-7.5 7.5-7.5s7.5 3.36 7.5 7.5v13.62c1.61.49 3.15 1.13 4.61 1.92l6.56-6.56c2.93-2.93 7.68-2.93 10.6 0 2.93 2.93 2.93 7.68 0 10.61l-6.55 6.55c.78 1.46 1.43 3.01 1.92 4.62h13.61c4.14 0 7.5 3.35 7.5 7.5 0 4.14-3.36 7.5-7.5 7.5z" fill="#ff2261"/><path d="m279.486 316.727c-.49 1.61-1.14 3.15-1.92 4.61l17.62 17.62c2.93 2.93 2.93 7.68 0 10.6-1.47 1.47-3.38 2.2-5.3 2.2s-3.84-.73-5.31-2.2l-17.62-17.61c-1.46.78-3 1.42-4.61 1.91v13.62c0 4.14-3.36 7.5-7.5 7.5v-19.728c0-3.454 1.911-6.713 5.057-8.139 5.794-2.628 9.943-9.643 9.943-17.893 0-8.242-4.149-15.262-9.943-17.892-3.146-1.428-5.057-4.687-5.057-8.142v-19.716c4.14 0 7.5 3.36 7.5 7.5v13.62c1.61.49 3.15 1.13 4.61 1.92l6.56-6.56c2.93-2.93 7.68-2.93 10.6 0 2.93 2.93 2.93 7.68 0 10.61l-6.55 6.55c.78 1.46 1.43 3.01 1.92 4.62h13.357c3.813 0 7.212 2.739 7.691 6.522.58 4.576-2.976 8.478-7.438 8.478z" fill="#b7305d"/></g><g fill="#ffe527"><path d="m122.491 234.242-27.55-42.01 12.56-10.07c1.2-.97 1.9-2.43 1.91-3.97 0-1.54-.69-3.01-1.89-3.98l-58.14-47.12c-1.81-1.47-4.4-1.52-6.27-.12l-25.31 18.92-15.75 11.78c-1.42 1.06-2.19 2.79-2.03 4.55.16 1.77 1.23 3.32 2.82 4.11l43.64 21.63-14.27 10.67c-1.47 1.1-2.24 2.9-2.01 4.72s1.42 3.38 3.11 4.08l82.96 34.33c.63.26 1.29.39 1.95.39 1.49 0 2.94-.66 3.93-1.85 1.43-1.73 1.56-4.18.34-6.06z"/><path d="m93.383 276.384-26.507-3.439 7.827-9.911c1.674-2.119 2.079-4.975 1.061-7.477s-3.303-4.262-5.981-4.609l-39.629-5.143c-4.102-.533-7.869 2.364-8.402 6.472s2.364 7.87 6.473 8.403l26.507 3.44-7.827 9.911c-1.674 2.119-2.079 4.975-1.061 7.477s3.303 4.262 5.981 4.609l39.629 5.142c.327.042.652.063.975.063 3.712 0 6.938-2.756 7.428-6.536.532-4.107-2.366-7.869-6.474-8.402z"/></g><g><path d="m419.478 276.379 26.507-3.439-7.827-9.911c-1.674-2.119-2.079-4.975-1.061-7.477s3.303-4.262 5.981-4.609l39.629-5.143c4.102-.533 7.869 2.364 8.402 6.472s-2.364 7.87-6.473 8.403l-26.507 3.44 7.827 9.911c1.674 2.119 2.079 4.975 1.061 7.477s-3.303 4.262-5.981 4.609l-39.629 5.142c-.327.042-.652.063-.975.063-3.712 0-6.938-2.756-7.428-6.536-.532-4.107 2.365-7.869 6.474-8.402z" fill="#ffe527"/></g><path d="m61.661 176.402-15.18 11.56-43.64-21.63c-1.59-.79-2.66-2.34-2.82-4.11-.16-1.76.61-3.49 2.03-4.55l15.75-11.78z" fill="#ffbd29"/><g><path d="m390.034 234.242 27.55-42.01-12.56-10.07c-1.2-.97-1.9-2.43-1.91-3.97 0-1.54.69-3.01 1.89-3.98l58.14-47.12c1.81-1.47 4.4-1.52 6.27-.12l25.31 18.92 15.75 11.78c1.42 1.06 2.19 2.79 2.03 4.55-.16 1.77-1.23 3.32-2.82 4.11l-43.64 21.63 14.27 10.67c1.47 1.1 2.24 2.9 2.01 4.72s-1.42 3.38-3.11 4.08l-82.96 34.33c-.63.26-1.29.39-1.95.39-1.49 0-2.94-.66-3.93-1.85-1.43-1.73-1.56-4.18-.34-6.06z" fill="#ffe527"/><path d="m450.864 176.402 15.18 11.56 43.64-21.63c1.59-.79 2.66-2.34 2.82-4.11.16-1.76-.61-3.49-2.03-4.55l-15.75-11.78z" fill="#ffbd29"/></g><g><ellipse cx="189.261" cy="342.436" fill="#ff2261" rx="7.495" ry="7.498"/><ellipse cx="185.392" cy="294.137" fill="#ff2261" rx="7.495" ry="7.498"/><ellipse cx="316.401" cy="256.137" fill="#b7305d" rx="7.495" ry="7.498"/><ellipse cx="322.397" cy="323.14" fill="#ff2261" rx="7.495" ry="7.498"/></g></g></g></svg>